<?xml version="1.0" encoding="UTF-8"?>
<svg xmlns="http://www.w3.org/2000/svg" xmlns:xlink="http://www.w3.org/1999/xlink" width="369pt" height="246pt" viewBox="0 0 369 246" version="1.1">
<defs>
<g>
<symbol overflow="visible" id="glyph0-0">
<path style="stroke:none;" d=""/>
</symbol>
<symbol overflow="visible" id="glyph0-1">
<path style="stroke:none;" d="M 6.109375 -2.71875 C 6.109375 -2.96875 6.015625 -3 5.96875 -3 C 5.859375 -3 5.84375 -2.8125 5.84375 -2.6875 C 5.8125 -2.109375 5.390625 -1.484375 4.6875 -1.484375 C 4.21875 -1.484375 3.828125 -1.765625 3.359375 -2.203125 C 2.859375 -2.671875 2.4375 -3.015625 1.875 -3.015625 C 0.96875 -3.015625 0.46875 -2.0625 0.46875 -1.28125 C 0.46875 -1 0.5625 -0.984375 0.59375 -0.984375 C 0.65625 -0.984375 0.71875 -1.03125 0.71875 -1.234375 C 0.75 -2.015625 1.296875 -2.5 1.875 -2.5 C 2.359375 -2.5 2.734375 -2.21875 3.21875 -1.78125 C 3.71875 -1.3125 4.140625 -0.96875 4.6875 -0.96875 C 5.59375 -0.96875 6.109375 -1.90625 6.109375 -2.71875 Z M 6.109375 -2.71875 "/>
</symbol>
<symbol overflow="visible" id="glyph1-0">
<path style="stroke:none;" d=""/>
</symbol>
<symbol overflow="visible" id="glyph1-1">
<path style="stroke:none;" d="M 5.828125 -2.65625 C 5.9375 -2.65625 6.109375 -2.65625 6.109375 -2.84375 C 6.109375 -3.015625 5.90625 -3.015625 5.796875 -3.015625 L 0.78125 -3.015625 C 0.65625 -3.015625 0.46875 -3.015625 0.46875 -2.84375 C 0.46875 -2.65625 0.625 -2.65625 0.75 -2.65625 Z M 5.796875 -0.96875 C 5.90625 -0.96875 6.109375 -0.96875 6.109375 -1.140625 C 6.109375 -1.328125 5.9375 -1.328125 5.828125 -1.328125 L 0.75 -1.328125 C 0.625 -1.328125 0.46875 -1.328125 0.46875 -1.140625 C 0.46875 -0.96875 0.65625 -0.96875 0.78125 -0.96875 Z M 5.796875 -0.96875 "/>
</symbol>
<symbol overflow="visible" id="glyph2-0">
<path style="stroke:none;" d=""/>
</symbol>
<symbol overflow="visible" id="glyph2-1">
<path style="stroke:none;" d="M 7.203125 -3.328125 C 7.203125 -3.546875 7.140625 -3.65625 7.0625 -3.65625 C 7.015625 -3.65625 6.921875 -3.578125 6.921875 -3.390625 C 6.875 -2.4375 6.21875 -1.890625 5.515625 -1.890625 C 4.890625 -1.890625 4.421875 -2.3125 3.921875 -2.734375 C 3.421875 -3.203125 2.90625 -3.65625 2.21875 -3.65625 C 1.140625 -3.65625 0.546875 -2.5625 0.546875 -1.65625 C 0.546875 -1.328125 0.671875 -1.328125 0.6875 -1.328125 C 0.796875 -1.328125 0.828125 -1.53125 0.828125 -1.5625 C 0.875 -2.65625 1.609375 -3.09375 2.21875 -3.09375 C 2.84375 -3.09375 3.328125 -2.671875 3.8125 -2.25 C 4.328125 -1.78125 4.84375 -1.328125 5.515625 -1.328125 C 6.609375 -1.328125 7.203125 -2.421875 7.203125 -3.328125 Z M 7.203125 -3.328125 "/>
</symbol>
<symbol overflow="visible" id="glyph3-0">
<path style="stroke:none;" d=""/>
</symbol>
<symbol overflow="visible" id="glyph3-1">
<path style="stroke:none;" d="M 3.671875 -6.234375 C 3.625 -6.34375 3.59375 -6.421875 3.453125 -6.421875 C 3.3125 -6.421875 3.296875 -6.375 3.234375 -6.21875 L 1.3125 -0.890625 C 1.203125 -0.59375 1 -0.28125 0.3125 -0.28125 L 0.3125 0 C 0.640625 -0.03125 0.890625 -0.03125 1.21875 -0.03125 C 1.53125 -0.03125 1.734375 -0.015625 2.234375 0 L 2.234375 -0.28125 C 1.71875 -0.28125 1.5625 -0.5625 1.5625 -0.734375 C 1.5625 -0.8125 1.59375 -0.859375 1.609375 -0.90625 L 2.03125 -2.0625 L 4.34375 -2.0625 L 4.828125 -0.703125 C 4.875 -0.625 4.875 -0.59375 4.875 -0.546875 C 4.875 -0.28125 4.375 -0.28125 4.140625 -0.28125 L 4.140625 0 C 4.546875 -0.03125 5.015625 -0.03125 5.421875 -0.03125 C 5.828125 -0.03125 5.859375 -0.03125 6.59375 0 L 6.59375 -0.28125 L 6.453125 -0.28125 C 5.890625 -0.28125 5.796875 -0.359375 5.703125 -0.609375 Z M 4.25 -2.34375 L 2.125 -2.34375 L 3.1875 -5.28125 Z M 4.25 -2.34375 "/>
</symbol>
<symbol overflow="visible" id="glyph3-2">
<path style="stroke:none;" d="M 5.421875 -5.546875 C 5.140625 -5.828125 4.625 -6.328125 3.71875 -6.328125 C 1.984375 -6.328125 0.515625 -4.875 0.515625 -3.0625 C 0.515625 -1.21875 2 0.203125 3.71875 0.203125 C 5.203125 0.203125 6.140625 -1.03125 6.140625 -2.078125 C 6.140625 -2.171875 6.140625 -2.25 6.015625 -2.25 C 5.890625 -2.25 5.890625 -2.1875 5.890625 -2.109375 C 5.8125 -0.75 4.734375 -0.078125 3.8125 -0.078125 C 3.046875 -0.078125 1.421875 -0.5625 1.421875 -3.0625 C 1.421875 -5.5625 3.0625 -6.046875 3.796875 -6.046875 C 4.6875 -6.046875 5.625 -5.375 5.84375 -3.921875 C 5.859375 -3.796875 5.875 -3.765625 5.984375 -3.765625 C 6.140625 -3.765625 6.140625 -3.796875 6.140625 -3.984375 L 6.140625 -6.09375 C 6.140625 -6.25 6.140625 -6.328125 6.03125 -6.328125 C 5.96875 -6.328125 5.9375 -6.296875 5.890625 -6.21875 Z M 5.421875 -5.546875 "/>
</symbol>
<symbol overflow="visible" id="glyph3-3">
<path style="stroke:none;" d="M 1.625 -2.859375 C 1.625 -3.03125 1.625 -3.046875 1.71875 -3.1875 C 2.03125 -3.59375 2.46875 -3.734375 2.8125 -3.734375 C 3.1875 -3.734375 3.546875 -3.53125 3.78125 -3.140625 C 4.015625 -2.765625 4.03125 -2.234375 4.03125 -1.953125 C 4.03125 -1.53125 3.984375 -1.046875 3.75 -0.6875 C 3.546875 -0.40625 3.1875 -0.125 2.703125 -0.125 C 2.3125 -0.125 1.96875 -0.34375 1.75 -0.671875 C 1.625 -0.859375 1.625 -0.875 1.625 -1.046875 Z M 1.546875 -0.546875 C 1.828125 -0.15625 2.265625 0.09375 2.75 0.09375 C 3.828125 0.09375 4.8125 -0.765625 4.8125 -1.9375 C 4.8125 -3.0625 3.921875 -3.96875 2.84375 -3.96875 C 2.234375 -3.96875 1.8125 -3.65625 1.59375 -3.40625 L 1.59375 -6.21875 L 0.265625 -6.125 L 0.265625 -5.84375 C 0.875 -5.84375 0.953125 -5.78125 0.953125 -5.34375 L 0.953125 0 L 1.203125 0 Z M 1.546875 -0.546875 "/>
</symbol>
<symbol overflow="visible" id="glyph3-4">
<path style="stroke:none;" d="M 3.546875 -1.5 C 3.546875 -0.703125 3.109375 -0.125 2.453125 -0.125 C 1.71875 -0.125 1.671875 -0.515625 1.671875 -1 L 1.671875 -3.96875 L 0.3125 -3.859375 L 0.3125 -3.59375 C 1 -3.59375 1 -3.5625 1 -2.765625 L 1 -1.421875 C 1 -0.828125 1 -0.453125 1.421875 -0.140625 C 1.671875 0.03125 2.046875 0.09375 2.40625 0.09375 C 2.875 0.09375 3.3125 -0.109375 3.5625 -0.640625 L 3.578125 -0.640625 L 3.578125 0.09375 L 4.90625 0 L 4.90625 -0.28125 C 4.296875 -0.28125 4.21875 -0.34375 4.21875 -0.78125 L 4.21875 -3.96875 L 2.859375 -3.859375 L 2.859375 -3.59375 C 3.46875 -3.59375 3.546875 -3.53125 3.546875 -3.078125 Z M 3.546875 -1.5 "/>
</symbol>
<symbol overflow="visible" id="glyph3-5">
<path style="stroke:none;" d="M 3.078125 -3.78125 C 3.078125 -3.9375 3.078125 -4.015625 2.984375 -4.015625 C 2.9375 -4.015625 2.921875 -4.015625 2.796875 -3.90625 C 2.78125 -3.890625 2.703125 -3.8125 2.640625 -3.765625 C 2.375 -3.96875 2.09375 -4.015625 1.78125 -4.015625 C 0.59375 -4.015625 0.3125 -3.359375 0.3125 -2.90625 C 0.3125 -2.625 0.4375 -2.390625 0.640625 -2.1875 C 0.9375 -1.90625 1.28125 -1.84375 1.734375 -1.765625 C 2.203125 -1.671875 2.34375 -1.65625 2.546875 -1.5 C 2.640625 -1.421875 2.859375 -1.25 2.859375 -0.921875 C 2.859375 -0.125 1.953125 -0.125 1.828125 -0.125 C 0.921875 -0.125 0.6875 -0.890625 0.578125 -1.375 C 0.546875 -1.46875 0.53125 -1.515625 0.4375 -1.515625 C 0.3125 -1.515625 0.3125 -1.4375 0.3125 -1.28125 L 0.3125 -0.140625 C 0.3125 0.015625 0.3125 0.09375 0.40625 0.09375 C 0.46875 0.09375 0.46875 0.09375 0.640625 -0.078125 C 0.671875 -0.140625 0.765625 -0.25 0.8125 -0.296875 C 1.1875 0.078125 1.609375 0.09375 1.828125 0.09375 C 2.9375 0.09375 3.3125 -0.546875 3.3125 -1.140625 C 3.3125 -1.546875 3.140625 -1.796875 2.9375 -2 C 2.640625 -2.296875 2.3125 -2.359375 1.65625 -2.484375 C 1.421875 -2.53125 0.765625 -2.640625 0.765625 -3.15625 C 0.765625 -3.4375 0.96875 -3.828125 1.78125 -3.828125 C 2.75 -3.828125 2.8125 -3.078125 2.828125 -2.859375 C 2.84375 -2.75 2.84375 -2.6875 2.953125 -2.6875 C 3.078125 -2.6875 3.078125 -2.75 3.078125 -2.921875 Z M 3.078125 -3.78125 "/>
</symbol>
<symbol overflow="visible" id="glyph3-6">
<path style="stroke:none;" d="M 1.59375 -2.046875 C 1.59375 -2.421875 1.6875 -3.734375 2.71875 -3.734375 C 2.703125 -3.71875 2.5625 -3.609375 2.5625 -3.40625 C 2.5625 -3.15625 2.75 -3 2.953125 -3 C 3.140625 -3 3.34375 -3.140625 3.34375 -3.40625 C 3.34375 -3.6875 3.078125 -3.96875 2.671875 -3.96875 C 2.140625 -3.96875 1.765625 -3.59375 1.546875 -3.03125 L 1.546875 -3.96875 L 0.265625 -3.859375 L 0.265625 -3.59375 C 0.875 -3.59375 0.953125 -3.53125 0.953125 -3.078125 L 0.953125 -0.6875 C 0.953125 -0.28125 0.859375 -0.28125 0.265625 -0.28125 L 0.265625 0 C 0.75 -0.015625 0.859375 -0.03125 1.3125 -0.03125 C 1.671875 -0.03125 1.890625 -0.015625 2.453125 0 L 2.453125 -0.28125 L 2.28125 -0.28125 C 1.625 -0.28125 1.59375 -0.375 1.59375 -0.703125 Z M 1.59375 -2.046875 "/>
</symbol>
<symbol overflow="visible" id="glyph3-7">
<path style="stroke:none;" d="M 3.0625 -0.640625 C 3.109375 -0.265625 3.375 0.046875 3.765625 0.046875 C 3.984375 0.046875 4.546875 -0.078125 4.546875 -0.796875 L 4.546875 -1.296875 L 4.296875 -1.296875 L 4.296875 -0.8125 C 4.296875 -0.703125 4.296875 -0.265625 3.96875 -0.265625 C 3.65625 -0.265625 3.65625 -0.6875 3.65625 -0.828125 L 3.65625 -2.40625 C 3.65625 -2.921875 3.65625 -3.21875 3.25 -3.59375 C 2.921875 -3.890625 2.484375 -4.015625 2.03125 -4.015625 C 1.28125 -4.015625 0.65625 -3.640625 0.65625 -3.0625 C 0.65625 -2.796875 0.84375 -2.640625 1.078125 -2.640625 C 1.3125 -2.640625 1.484375 -2.8125 1.484375 -3.046875 C 1.484375 -3.4375 1.09375 -3.484375 1.078125 -3.484375 C 1.328125 -3.71875 1.765625 -3.796875 2.015625 -3.796875 C 2.46875 -3.796875 2.984375 -3.453125 2.984375 -2.65625 L 2.984375 -2.375 C 2.5 -2.34375 1.828125 -2.3125 1.234375 -2.015625 C 0.578125 -1.703125 0.390625 -1.234375 0.390625 -0.875 C 0.390625 -0.140625 1.25 0.09375 1.859375 0.09375 C 2.59375 0.09375 2.9375 -0.390625 3.0625 -0.640625 Z M 2.984375 -1.265625 C 2.984375 -0.390625 2.3125 -0.125 1.921875 -0.125 C 1.5 -0.125 1.109375 -0.4375 1.109375 -0.875 C 1.109375 -1.46875 1.609375 -2.09375 2.984375 -2.15625 Z M 2.984375 -1.265625 "/>
</symbol>
<symbol overflow="visible" id="glyph3-8">
<path style="stroke:none;" d="M 1.671875 -2.328125 C 1.671875 -3.28125 2.34375 -3.734375 2.90625 -3.734375 C 3.4375 -3.734375 3.546875 -3.296875 3.546875 -2.765625 L 3.546875 -0.6875 C 3.546875 -0.28125 3.453125 -0.28125 2.859375 -0.28125 L 2.859375 0 C 3.28125 -0.015625 3.453125 -0.03125 3.890625 -0.03125 C 4.3125 -0.03125 4.4375 -0.015625 4.90625 0 L 4.90625 -0.28125 C 4.453125 -0.28125 4.21875 -0.28125 4.21875 -0.5625 L 4.21875 -2.28125 C 4.21875 -3.015625 4.21875 -3.28125 3.96875 -3.59375 C 3.765625 -3.84375 3.421875 -3.96875 2.96875 -3.96875 C 2.140625 -3.96875 1.75 -3.34375 1.625 -3.09375 L 1.609375 -3.09375 L 1.609375 -3.96875 L 0.3125 -3.859375 L 0.3125 -3.59375 C 0.921875 -3.59375 1 -3.53125 1 -3.078125 L 1 -0.6875 C 1 -0.28125 0.90625 -0.28125 0.3125 -0.28125 L 0.3125 0 C 0.734375 -0.015625 0.90625 -0.03125 1.34375 -0.03125 C 1.765625 -0.03125 1.890625 -0.015625 2.359375 0 L 2.359375 -0.28125 C 1.765625 -0.28125 1.671875 -0.28125 1.671875 -0.6875 Z M 1.671875 -2.328125 "/>
</symbol>
<symbol overflow="visible" id="glyph3-9">
<path style="stroke:none;" d="M 3.265625 -3.53125 C 3.078125 -3.484375 2.890625 -3.359375 2.890625 -3.109375 C 2.890625 -2.875 3.078125 -2.6875 3.3125 -2.6875 C 3.546875 -2.6875 3.734375 -2.84375 3.734375 -3.125 C 3.734375 -3.671875 3.109375 -4.015625 2.3125 -4.015625 C 1.171875 -4.015625 0.3125 -3.0625 0.3125 -1.9375 C 0.3125 -0.78125 1.234375 0.09375 2.296875 0.09375 C 3.546875 0.09375 3.828125 -0.984375 3.828125 -1.0625 C 3.828125 -1.171875 3.734375 -1.171875 3.703125 -1.171875 C 3.609375 -1.171875 3.609375 -1.15625 3.546875 -1 C 3.34375 -0.390625 2.84375 -0.15625 2.390625 -0.15625 C 1.8125 -0.15625 1.078125 -0.625 1.078125 -1.953125 C 1.078125 -3.34375 1.796875 -3.765625 2.328125 -3.765625 C 2.453125 -3.765625 2.9375 -3.75 3.265625 -3.53125 Z M 3.265625 -3.53125 "/>
</symbol>
<symbol overflow="visible" id="glyph3-10">
<path style="stroke:none;" d="M 1.640625 -6.21875 L 0.3125 -6.125 L 0.3125 -5.84375 C 0.921875 -5.84375 1 -5.78125 1 -5.34375 L 1 -0.6875 C 1 -0.28125 0.90625 -0.28125 0.3125 -0.28125 L 0.3125 0 C 0.734375 -0.015625 0.90625 -0.03125 1.34375 -0.03125 C 1.765625 -0.03125 1.890625 -0.015625 2.359375 0 L 2.359375 -0.28125 C 1.765625 -0.28125 1.671875 -0.28125 1.671875 -0.6875 L 1.671875 -2.328125 C 1.671875 -3.28125 2.34375 -3.734375 2.90625 -3.734375 C 3.4375 -3.734375 3.546875 -3.296875 3.546875 -2.765625 L 3.546875 -0.6875 C 3.546875 -0.28125 3.453125 -0.28125 2.859375 -0.28125 L 2.859375 0 C 3.28125 -0.015625 3.453125 -0.03125 3.890625 -0.03125 C 4.3125 -0.03125 4.4375 -0.015625 4.90625 0 L 4.90625 -0.28125 C 4.453125 -0.28125 4.21875 -0.28125 4.21875 -0.5625 L 4.21875 -2.28125 C 4.21875 -3.015625 4.21875 -3.28125 3.96875 -3.59375 C 3.765625 -3.84375 3.421875 -3.96875 2.96875 -3.96875 C 2.375 -3.96875 1.921875 -3.65625 1.65625 -3.140625 L 1.640625 -3.140625 Z M 1.640625 -6.21875 "/>
</symbol>
<symbol overflow="visible" id="glyph3-11">
<path style="stroke:none;" d="M 0.5625 -5.84375 C 1.25 -5.84375 1.28125 -5.75 1.28125 -5.421875 L 1.28125 -0.703125 C 1.28125 -0.375 1.25 -0.28125 0.5625 -0.28125 L 0.359375 -0.28125 L 0.359375 0 L 3.6875 0 C 5.25 0 6.515625 -1.328125 6.515625 -3.015625 C 6.515625 -4.71875 5.28125 -6.125 3.6875 -6.125 L 0.359375 -6.125 L 0.359375 -5.84375 Z M 2.5 -0.28125 C 2.078125 -0.28125 2.046875 -0.34375 2.046875 -0.640625 L 2.046875 -5.484375 C 2.046875 -5.78125 2.078125 -5.84375 2.5 -5.84375 L 3.453125 -5.84375 C 4.328125 -5.84375 4.859375 -5.390625 5.109375 -5.0625 C 5.5 -4.546875 5.625 -3.90625 5.625 -3.015625 C 5.625 -2.640625 5.625 -1.703125 5.140625 -1.078125 C 4.671875 -0.46875 4.03125 -0.28125 3.46875 -0.28125 Z M 2.5 -0.28125 "/>
</symbol>
<symbol overflow="visible" id="glyph3-12">
<path style="stroke:none;" d="M 5.359375 -2.3125 L 5.109375 -2.3125 C 5.015625 -1.40625 4.890625 -0.28125 3.28125 -0.28125 L 2.5 -0.28125 C 2.078125 -0.28125 2.0625 -0.34375 2.0625 -0.640625 L 2.0625 -5.40625 C 2.0625 -5.734375 2.09375 -5.84375 2.921875 -5.84375 L 3.203125 -5.84375 L 3.203125 -6.125 C 2.890625 -6.09375 2.078125 -6.09375 1.71875 -6.09375 C 1.296875 -6.09375 0.75 -6.09375 0.34375 -6.125 L 0.34375 -5.84375 L 0.546875 -5.84375 C 1.234375 -5.84375 1.25 -5.75 1.25 -5.421875 L 1.25 -0.703125 C 1.25 -0.375 1.234375 -0.28125 0.546875 -0.28125 L 0.34375 -0.28125 L 0.34375 0 L 5.109375 0 Z M 5.359375 -2.3125 "/>
</symbol>
<symbol overflow="visible" id="glyph3-13">
<path style="stroke:none;" d="M 4.34375 -1.90625 C 4.34375 -3.078125 3.40625 -4.015625 2.3125 -4.015625 C 1.171875 -4.015625 0.265625 -3.0625 0.265625 -1.90625 C 0.265625 -0.796875 1.1875 0.09375 2.296875 0.09375 C 3.4375 0.09375 4.34375 -0.8125 4.34375 -1.90625 Z M 2.3125 -0.15625 C 1.859375 -0.15625 1.484375 -0.375 1.28125 -0.71875 C 1.046875 -1.109375 1.03125 -1.578125 1.03125 -1.984375 C 1.03125 -2.328125 1.03125 -2.828125 1.25 -3.203125 C 1.53125 -3.65625 1.96875 -3.796875 2.296875 -3.796875 C 2.8125 -3.796875 3.171875 -3.5 3.359375 -3.203125 C 3.5625 -2.828125 3.5625 -2.375 3.5625 -1.984375 C 3.5625 -1.65625 3.5625 -1.140625 3.34375 -0.75 C 3.09375 -0.328125 2.6875 -0.15625 2.3125 -0.15625 Z M 2.3125 -0.15625 "/>
</symbol>
<symbol overflow="visible" id="glyph3-14">
<path style="stroke:none;" d="M 3.484375 -1.078125 C 3.484375 -0.921875 3.484375 -0.890625 3.359375 -0.703125 C 3.078125 -0.296875 2.65625 -0.125 2.3125 -0.125 C 1.921875 -0.125 1.5625 -0.34375 1.328125 -0.71875 C 1.09375 -1.109375 1.078125 -1.625 1.078125 -1.921875 C 1.078125 -2.34375 1.125 -2.8125 1.359375 -3.171875 C 1.5625 -3.46875 1.921875 -3.734375 2.40625 -3.734375 C 2.78125 -3.734375 3.140625 -3.546875 3.375 -3.203125 C 3.484375 -3.0625 3.484375 -3.0625 3.484375 -2.890625 Z M 3.515625 -3.4375 C 3.46875 -3.484375 3.0625 -3.96875 2.375 -3.96875 C 1.265625 -3.96875 0.3125 -3.078125 0.3125 -1.921875 C 0.3125 -0.8125 1.203125 0.09375 2.265625 0.09375 C 2.921875 0.09375 3.328125 -0.28125 3.484375 -0.46875 L 3.484375 0.09375 L 4.84375 0 L 4.84375 -0.28125 C 4.234375 -0.28125 4.15625 -0.34375 4.15625 -0.78125 L 4.15625 -6.21875 L 2.828125 -6.125 L 2.828125 -5.84375 C 3.4375 -5.84375 3.515625 -5.78125 3.515625 -5.34375 Z M 3.515625 -3.4375 "/>
</symbol>
<symbol overflow="visible" id="glyph4-0">
<path style="stroke:none;" d=""/>
</symbol>
<symbol overflow="visible" id="glyph4-1">
<path style="stroke:none;" d="M 6.140625 -6.09375 C 6.140625 -6.25 6.140625 -6.328125 6.03125 -6.328125 C 5.96875 -6.328125 5.9375 -6.296875 5.890625 -6.21875 L 5.421875 -5.546875 C 5.140625 -5.828125 4.625 -6.328125 3.71875 -6.328125 C 1.984375 -6.328125 0.515625 -4.875 0.515625 -3.0625 C 0.515625 -1.234375 1.96875 0.203125 3.734375 0.203125 C 4.578125 0.203125 5.21875 -0.125 5.46875 -0.5625 C 5.625 -0.328125 5.953125 -0.015625 6.03125 -0.015625 C 6.140625 -0.015625 6.140625 -0.09375 6.140625 -0.234375 L 6.140625 -1.78125 C 6.140625 -2.140625 6.171875 -2.171875 6.765625 -2.171875 L 6.765625 -2.453125 C 6.1875 -2.4375 6.09375 -2.4375 5.609375 -2.4375 C 5.265625 -2.4375 4.5 -2.4375 4.171875 -2.453125 L 4.171875 -2.171875 L 4.46875 -2.171875 C 5.296875 -2.171875 5.328125 -2.078125 5.328125 -1.734375 L 5.328125 -1.171875 C 5.328125 -0.078125 3.96875 -0.078125 3.84375 -0.078125 C 3.109375 -0.078125 1.421875 -0.515625 1.421875 -3.0625 C 1.421875 -5.5625 3.0625 -6.046875 3.796875 -6.046875 C 4.6875 -6.046875 5.625 -5.375 5.84375 -3.921875 C 5.859375 -3.796875 5.875 -3.765625 5.984375 -3.765625 C 6.140625 -3.765625 6.140625 -3.796875 6.140625 -3.984375 Z M 6.140625 -6.09375 "/>
</symbol>
<symbol overflow="visible" id="glyph4-2">
<path style="stroke:none;" d="M 3.59375 -2.046875 C 3.78125 -2.046875 3.828125 -2.046875 3.828125 -2.25 C 3.828125 -3.171875 3.328125 -4.015625 2.171875 -4.015625 C 1.109375 -4.015625 0.265625 -3.078125 0.265625 -1.96875 C 0.265625 -0.796875 1.203125 0.09375 2.296875 0.09375 C 3.390625 0.09375 3.828125 -0.859375 3.828125 -1.0625 C 3.828125 -1.125 3.78125 -1.1875 3.703125 -1.1875 C 3.609375 -1.1875 3.59375 -1.125 3.578125 -1.078125 C 3.28125 -0.171875 2.46875 -0.15625 2.34375 -0.15625 C 1.90625 -0.15625 1.546875 -0.390625 1.34375 -0.703125 C 1.046875 -1.140625 1.03125 -1.671875 1.03125 -2.046875 Z M 1.046875 -2.265625 C 1.125 -3.65625 1.921875 -3.796875 2.171875 -3.796875 C 2.671875 -3.796875 3.203125 -3.421875 3.21875 -2.265625 Z M 1.046875 -2.265625 "/>
</symbol>
<symbol overflow="visible" id="glyph4-3">
<path style="stroke:none;" d="M 1.671875 -2.328125 C 1.671875 -3.28125 2.34375 -3.734375 2.90625 -3.734375 C 3.4375 -3.734375 3.546875 -3.296875 3.546875 -2.765625 L 3.546875 -0.6875 C 3.546875 -0.28125 3.453125 -0.28125 2.859375 -0.28125 L 2.859375 0 C 3.28125 -0.015625 3.453125 -0.03125 3.890625 -0.03125 C 4.3125 -0.03125 4.4375 -0.015625 4.90625 0 L 4.90625 -0.28125 C 4.453125 -0.28125 4.21875 -0.28125 4.21875 -0.5625 L 4.21875 -2.28125 C 4.21875 -3.015625 4.21875 -3.28125 3.96875 -3.59375 C 3.765625 -3.84375 3.421875 -3.96875 2.96875 -3.96875 C 2.140625 -3.96875 1.75 -3.34375 1.625 -3.09375 L 1.609375 -3.09375 L 1.609375 -3.96875 L 0.3125 -3.859375 L 0.3125 -3.59375 C 0.921875 -3.59375 1 -3.53125 1 -3.078125 L 1 -0.6875 C 1 -0.28125 0.90625 -0.28125 0.3125 -0.28125 L 0.3125 0 C 0.734375 -0.015625 0.90625 -0.03125 1.34375 -0.03125 C 1.765625 -0.03125 1.890625 -0.015625 2.359375 0 L 2.359375 -0.28125 C 1.765625 -0.28125 1.671875 -0.28125 1.671875 -0.6875 Z M 1.671875 -2.328125 "/>
</symbol>
<symbol overflow="visible" id="glyph4-4">
<path style="stroke:none;" d="M 1.59375 -2.046875 C 1.59375 -2.421875 1.6875 -3.734375 2.71875 -3.734375 C 2.703125 -3.71875 2.5625 -3.609375 2.5625 -3.40625 C 2.5625 -3.15625 2.75 -3 2.953125 -3 C 3.140625 -3 3.34375 -3.140625 3.34375 -3.40625 C 3.34375 -3.6875 3.078125 -3.96875 2.671875 -3.96875 C 2.140625 -3.96875 1.765625 -3.59375 1.546875 -3.03125 L 1.546875 -3.96875 L 0.265625 -3.859375 L 0.265625 -3.59375 C 0.875 -3.59375 0.953125 -3.53125 0.953125 -3.078125 L 0.953125 -0.6875 C 0.953125 -0.28125 0.859375 -0.28125 0.265625 -0.28125 L 0.265625 0 C 0.75 -0.015625 0.859375 -0.03125 1.3125 -0.03125 C 1.671875 -0.03125 1.890625 -0.015625 2.453125 0 L 2.453125 -0.28125 L 2.28125 -0.28125 C 1.625 -0.28125 1.59375 -0.375 1.59375 -0.703125 Z M 1.59375 -2.046875 "/>
</symbol>
<symbol overflow="visible" id="glyph4-5">
<path style="stroke:none;" d="M 3.0625 -0.640625 C 3.109375 -0.265625 3.375 0.046875 3.765625 0.046875 C 3.984375 0.046875 4.546875 -0.078125 4.546875 -0.796875 L 4.546875 -1.296875 L 4.296875 -1.296875 L 4.296875 -0.8125 C 4.296875 -0.703125 4.296875 -0.265625 3.96875 -0.265625 C 3.65625 -0.265625 3.65625 -0.6875 3.65625 -0.828125 L 3.65625 -2.40625 C 3.65625 -2.921875 3.65625 -3.21875 3.25 -3.59375 C 2.921875 -3.890625 2.484375 -4.015625 2.03125 -4.015625 C 1.28125 -4.015625 0.65625 -3.640625 0.65625 -3.0625 C 0.65625 -2.796875 0.84375 -2.640625 1.078125 -2.640625 C 1.3125 -2.640625 1.484375 -2.8125 1.484375 -3.046875 C 1.484375 -3.4375 1.09375 -3.484375 1.078125 -3.484375 C 1.328125 -3.71875 1.765625 -3.796875 2.015625 -3.796875 C 2.46875 -3.796875 2.984375 -3.453125 2.984375 -2.65625 L 2.984375 -2.375 C 2.5 -2.34375 1.828125 -2.3125 1.234375 -2.015625 C 0.578125 -1.703125 0.390625 -1.234375 0.390625 -0.875 C 0.390625 -0.140625 1.25 0.09375 1.859375 0.09375 C 2.59375 0.09375 2.9375 -0.390625 3.0625 -0.640625 Z M 2.984375 -1.265625 C 2.984375 -0.390625 2.3125 -0.125 1.921875 -0.125 C 1.5 -0.125 1.109375 -0.4375 1.109375 -0.875 C 1.109375 -1.46875 1.609375 -2.09375 2.984375 -2.15625 Z M 2.984375 -1.265625 "/>
</symbol>
<symbol overflow="visible" id="glyph4-6">
<path style="stroke:none;" d="M 2.921875 -3.59375 L 2.921875 -3.859375 L 1.609375 -3.859375 L 1.609375 -5.515625 L 1.359375 -5.515625 C 1.359375 -4.765625 1.046875 -3.84375 0.171875 -3.8125 L 0.171875 -3.59375 L 0.953125 -3.59375 L 0.953125 -1.109375 C 0.953125 -0.109375 1.671875 0.09375 2.15625 0.09375 C 2.75 0.09375 3.0625 -0.46875 3.0625 -1.109375 L 3.0625 -1.625 L 2.8125 -1.625 L 2.8125 -1.140625 C 2.8125 -0.46875 2.53125 -0.15625 2.21875 -0.15625 C 1.609375 -0.15625 1.609375 -0.9375 1.609375 -1.109375 L 1.609375 -3.59375 Z M 2.921875 -3.59375 "/>
</symbol>
<symbol overflow="visible" id="glyph4-7">
<path style="stroke:none;" d="M 4.34375 -1.90625 C 4.34375 -3.078125 3.40625 -4.015625 2.3125 -4.015625 C 1.171875 -4.015625 0.265625 -3.0625 0.265625 -1.90625 C 0.265625 -0.796875 1.1875 0.09375 2.296875 0.09375 C 3.4375 0.09375 4.34375 -0.8125 4.34375 -1.90625 Z M 2.3125 -0.15625 C 1.859375 -0.15625 1.484375 -0.375 1.28125 -0.71875 C 1.046875 -1.109375 1.03125 -1.578125 1.03125 -1.984375 C 1.03125 -2.328125 1.03125 -2.828125 1.25 -3.203125 C 1.53125 -3.65625 1.96875 -3.796875 2.296875 -3.796875 C 2.8125 -3.796875 3.171875 -3.5 3.359375 -3.203125 C 3.5625 -2.828125 3.5625 -2.375 3.5625 -1.984375 C 3.5625 -1.65625 3.5625 -1.140625 3.34375 -0.75 C 3.09375 -0.328125 2.6875 -0.15625 2.3125 -0.15625 Z M 2.3125 -0.15625 "/>
</symbol>
<symbol overflow="visible" id="glyph5-0">
<path style="stroke:none;" d=""/>
</symbol>
<symbol overflow="visible" id="glyph5-1">
<path style="stroke:none;" d="M 3.671875 -6.234375 C 3.625 -6.34375 3.59375 -6.421875 3.453125 -6.421875 C 3.3125 -6.421875 3.296875 -6.375 3.234375 -6.21875 L 1.3125 -0.890625 C 1.203125 -0.59375 1 -0.28125 0.3125 -0.28125 L 0.3125 0 C 0.640625 -0.03125 0.890625 -0.03125 1.21875 -0.03125 C 1.53125 -0.03125 1.734375 -0.015625 2.234375 0 L 2.234375 -0.28125 C 1.71875 -0.28125 1.5625 -0.5625 1.5625 -0.734375 C 1.5625 -0.8125 1.59375 -0.859375 1.609375 -0.90625 L 2.03125 -2.0625 L 4.34375 -2.0625 L 4.828125 -0.703125 C 4.875 -0.625 4.875 -0.59375 4.875 -0.546875 C 4.875 -0.28125 4.375 -0.28125 4.140625 -0.28125 L 4.140625 0 C 4.546875 -0.03125 5.015625 -0.03125 5.421875 -0.03125 C 5.828125 -0.03125 5.859375 -0.03125 6.59375 0 L 6.59375 -0.28125 L 6.453125 -0.28125 C 5.890625 -0.28125 5.796875 -0.359375 5.703125 -0.609375 Z M 4.25 -2.34375 L 2.125 -2.34375 L 3.1875 -5.28125 Z M 4.25 -2.34375 "/>
</symbol>
<symbol overflow="visible" id="glyph5-2">
<path style="stroke:none;" d="M 5.421875 -5.546875 C 5.140625 -5.828125 4.625 -6.328125 3.71875 -6.328125 C 1.984375 -6.328125 0.515625 -4.875 0.515625 -3.0625 C 0.515625 -1.21875 2 0.203125 3.71875 0.203125 C 5.203125 0.203125 6.140625 -1.03125 6.140625 -2.078125 C 6.140625 -2.171875 6.140625 -2.25 6.015625 -2.25 C 5.890625 -2.25 5.890625 -2.1875 5.890625 -2.109375 C 5.8125 -0.75 4.734375 -0.078125 3.8125 -0.078125 C 3.046875 -0.078125 1.421875 -0.5625 1.421875 -3.0625 C 1.421875 -5.5625 3.0625 -6.046875 3.796875 -6.046875 C 4.6875 -6.046875 5.625 -5.375 5.84375 -3.921875 C 5.859375 -3.796875 5.875 -3.765625 5.984375 -3.765625 C 6.140625 -3.765625 6.140625 -3.796875 6.140625 -3.984375 L 6.140625 -6.09375 C 6.140625 -6.25 6.140625 -6.328125 6.03125 -6.328125 C 5.96875 -6.328125 5.9375 -6.296875 5.890625 -6.21875 Z M 5.421875 -5.546875 "/>
</symbol>
<symbol overflow="visible" id="glyph5-3">
<path style="stroke:none;" d="M 4.046875 -6.375 C 4.078125 -6.453125 4.09375 -6.5 4.09375 -6.53125 C 4.09375 -6.65625 3.984375 -6.734375 3.90625 -6.734375 C 3.765625 -6.734375 3.71875 -6.625 3.6875 -6.515625 L 0.5625 1.890625 C 0.53125 1.96875 0.515625 2.015625 0.515625 2.046875 C 0.515625 2.171875 0.625 2.25 0.703125 2.25 C 0.84375 2.25 0.875 2.140625 0.921875 2.03125 Z M 4.046875 -6.375 "/>
</symbol>
<symbol overflow="visible" id="glyph5-4">
<path style="stroke:none;" d="M 0.5625 -5.84375 C 1.25 -5.84375 1.28125 -5.75 1.28125 -5.421875 L 1.28125 -0.703125 C 1.28125 -0.375 1.25 -0.28125 0.5625 -0.28125 L 0.359375 -0.28125 L 0.359375 0 L 3.6875 0 C 5.25 0 6.515625 -1.328125 6.515625 -3.015625 C 6.515625 -4.71875 5.28125 -6.125 3.6875 -6.125 L 0.359375 -6.125 L 0.359375 -5.84375 Z M 2.5 -0.28125 C 2.078125 -0.28125 2.046875 -0.34375 2.046875 -0.640625 L 2.046875 -5.484375 C 2.046875 -5.78125 2.078125 -5.84375 2.5 -5.84375 L 3.453125 -5.84375 C 4.328125 -5.84375 4.859375 -5.390625 5.109375 -5.0625 C 5.5 -4.546875 5.625 -3.90625 5.625 -3.015625 C 5.625 -2.640625 5.625 -1.703125 5.140625 -1.078125 C 4.671875 -0.46875 4.03125 -0.28125 3.46875 -0.28125 Z M 2.5 -0.28125 "/>
</symbol>
<symbol overflow="visible" id="glyph5-5">
<path style="stroke:none;" d="M 3.265625 -3.53125 C 3.078125 -3.484375 2.890625 -3.359375 2.890625 -3.109375 C 2.890625 -2.875 3.078125 -2.6875 3.3125 -2.6875 C 3.546875 -2.6875 3.734375 -2.84375 3.734375 -3.125 C 3.734375 -3.671875 3.109375 -4.015625 2.3125 -4.015625 C 1.171875 -4.015625 0.3125 -3.0625 0.3125 -1.9375 C 0.3125 -0.78125 1.234375 0.09375 2.296875 0.09375 C 3.546875 0.09375 3.828125 -0.984375 3.828125 -1.0625 C 3.828125 -1.171875 3.734375 -1.171875 3.703125 -1.171875 C 3.609375 -1.171875 3.609375 -1.15625 3.546875 -1 C 3.34375 -0.390625 2.84375 -0.15625 2.390625 -0.15625 C 1.8125 -0.15625 1.078125 -0.625 1.078125 -1.953125 C 1.078125 -3.34375 1.796875 -3.765625 2.328125 -3.765625 C 2.453125 -3.765625 2.9375 -3.75 3.265625 -3.53125 Z M 3.265625 -3.53125 "/>
</symbol>
<symbol overflow="visible" id="glyph5-6">
<path style="stroke:none;" d="M 4.34375 -1.90625 C 4.34375 -3.078125 3.40625 -4.015625 2.3125 -4.015625 C 1.171875 -4.015625 0.265625 -3.0625 0.265625 -1.90625 C 0.265625 -0.796875 1.1875 0.09375 2.296875 0.09375 C 3.4375 0.09375 4.34375 -0.8125 4.34375 -1.90625 Z M 2.3125 -0.15625 C 1.859375 -0.15625 1.484375 -0.375 1.28125 -0.71875 C 1.046875 -1.109375 1.03125 -1.578125 1.03125 -1.984375 C 1.03125 -2.328125 1.03125 -2.828125 1.25 -3.203125 C 1.53125 -3.65625 1.96875 -3.796875 2.296875 -3.796875 C 2.8125 -3.796875 3.171875 -3.5 3.359375 -3.203125 C 3.5625 -2.828125 3.5625 -2.375 3.5625 -1.984375 C 3.5625 -1.65625 3.5625 -1.140625 3.34375 -0.75 C 3.09375 -0.328125 2.6875 -0.15625 2.3125 -0.15625 Z M 2.3125 -0.15625 "/>
</symbol>
<symbol overflow="visible" id="glyph5-7">
<path style="stroke:none;" d="M 1.671875 -2.328125 C 1.671875 -3.28125 2.34375 -3.734375 2.90625 -3.734375 C 3.4375 -3.734375 3.546875 -3.296875 3.546875 -2.765625 L 3.546875 -0.6875 C 3.546875 -0.28125 3.453125 -0.28125 2.859375 -0.28125 L 2.859375 0 C 3.28125 -0.015625 3.453125 -0.03125 3.890625 -0.03125 C 4.3125 -0.03125 4.4375 -0.015625 4.90625 0 L 4.90625 -0.28125 C 4.453125 -0.28125 4.21875 -0.28125 4.21875 -0.5625 L 4.21875 -2.28125 C 4.21875 -3.015625 4.21875 -3.28125 3.96875 -3.59375 C 3.765625 -3.84375 3.421875 -3.96875 2.96875 -3.96875 C 2.140625 -3.96875 1.75 -3.34375 1.625 -3.09375 L 1.609375 -3.09375 L 1.609375 -3.96875 L 0.3125 -3.859375 L 0.3125 -3.59375 C 0.921875 -3.59375 1 -3.53125 1 -3.078125 L 1 -0.6875 C 1 -0.28125 0.90625 -0.28125 0.3125 -0.28125 L 0.3125 0 C 0.734375 -0.015625 0.90625 -0.03125 1.34375 -0.03125 C 1.765625 -0.03125 1.890625 -0.015625 2.359375 0 L 2.359375 -0.28125 C 1.765625 -0.28125 1.671875 -0.28125 1.671875 -0.6875 Z M 1.671875 -2.328125 "/>
</symbol>
<symbol overflow="visible" id="glyph5-8">
<path style="stroke:none;" d="M 1.609375 -3.1875 C 1.59375 -3.234375 1.5625 -3.296875 1.5625 -3.359375 C 1.5625 -3.59375 1.890625 -3.59375 2.0625 -3.59375 L 2.0625 -3.859375 C 1.671875 -3.84375 1.46875 -3.84375 1.078125 -3.84375 C 0.765625 -3.84375 0.5 -3.84375 0.171875 -3.859375 L 0.171875 -3.59375 C 0.59375 -3.59375 0.765625 -3.59375 0.90625 -3.25 L 2.21875 -0.078125 C 2.265625 0.078125 2.34375 0.09375 2.421875 0.09375 C 2.5 0.09375 2.578125 0.078125 2.640625 -0.078125 L 3.859375 -3.015625 C 4.046875 -3.46875 4.359375 -3.578125 4.671875 -3.59375 L 4.671875 -3.859375 C 4.40625 -3.84375 4 -3.84375 3.984375 -3.84375 C 3.734375 -3.84375 3.453125 -3.84375 3.203125 -3.859375 L 3.203125 -3.59375 C 3.46875 -3.5625 3.609375 -3.4375 3.609375 -3.203125 C 3.609375 -3.109375 3.609375 -3.09375 3.5625 -3 L 2.640625 -0.734375 Z M 1.609375 -3.1875 "/>
</symbol>
<symbol overflow="visible" id="glyph5-9">
<path style="stroke:none;" d="M 3.59375 -2.046875 C 3.78125 -2.046875 3.828125 -2.046875 3.828125 -2.25 C 3.828125 -3.171875 3.328125 -4.015625 2.171875 -4.015625 C 1.109375 -4.015625 0.265625 -3.078125 0.265625 -1.96875 C 0.265625 -0.796875 1.203125 0.09375 2.296875 0.09375 C 3.390625 0.09375 3.828125 -0.859375 3.828125 -1.0625 C 3.828125 -1.125 3.78125 -1.1875 3.703125 -1.1875 C 3.609375 -1.1875 3.59375 -1.125 3.578125 -1.078125 C 3.28125 -0.171875 2.46875 -0.15625 2.34375 -0.15625 C 1.90625 -0.15625 1.546875 -0.390625 1.34375 -0.703125 C 1.046875 -1.140625 1.03125 -1.671875 1.03125 -2.046875 Z M 1.046875 -2.265625 C 1.125 -3.65625 1.921875 -3.796875 2.171875 -3.796875 C 2.671875 -3.796875 3.203125 -3.421875 3.21875 -2.265625 Z M 1.046875 -2.265625 "/>
</symbol>
<symbol overflow="visible" id="glyph5-10">
<path style="stroke:none;" d="M 1.59375 -2.046875 C 1.59375 -2.421875 1.6875 -3.734375 2.71875 -3.734375 C 2.703125 -3.71875 2.5625 -3.609375 2.5625 -3.40625 C 2.5625 -3.15625 2.75 -3 2.953125 -3 C 3.140625 -3 3.34375 -3.140625 3.34375 -3.40625 C 3.34375 -3.6875 3.078125 -3.96875 2.671875 -3.96875 C 2.140625 -3.96875 1.765625 -3.59375 1.546875 -3.03125 L 1.546875 -3.96875 L 0.265625 -3.859375 L 0.265625 -3.59375 C 0.875 -3.59375 0.953125 -3.53125 0.953125 -3.078125 L 0.953125 -0.6875 C 0.953125 -0.28125 0.859375 -0.28125 0.265625 -0.28125 L 0.265625 0 C 0.75 -0.015625 0.859375 -0.03125 1.3125 -0.03125 C 1.671875 -0.03125 1.890625 -0.015625 2.453125 0 L 2.453125 -0.28125 L 2.28125 -0.28125 C 1.625 -0.28125 1.59375 -0.375 1.59375 -0.703125 Z M 1.59375 -2.046875 "/>
</symbol>
<symbol overflow="visible" id="glyph5-11">
<path style="stroke:none;" d="M 2.921875 -3.59375 L 2.921875 -3.859375 L 1.609375 -3.859375 L 1.609375 -5.515625 L 1.359375 -5.515625 C 1.359375 -4.765625 1.046875 -3.84375 0.171875 -3.8125 L 0.171875 -3.59375 L 0.953125 -3.59375 L 0.953125 -1.109375 C 0.953125 -0.109375 1.671875 0.09375 2.15625 0.09375 C 2.75 0.09375 3.0625 -0.46875 3.0625 -1.109375 L 3.0625 -1.625 L 2.8125 -1.625 L 2.8125 -1.140625 C 2.8125 -0.46875 2.53125 -0.15625 2.21875 -0.15625 C 1.609375 -0.15625 1.609375 -0.9375 1.609375 -1.109375 L 1.609375 -3.59375 Z M 2.921875 -3.59375 "/>
</symbol>
<symbol overflow="visible" id="glyph6-0">
<path style="stroke:none;" d=""/>
</symbol>
<symbol overflow="visible" id="glyph6-1">
<path style="stroke:none;" d="M 3.96875 -6.9375 C 3.921875 -7.0625 3.890625 -7.140625 3.734375 -7.140625 C 3.578125 -7.140625 3.546875 -7.078125 3.5 -6.9375 L 1.4375 -0.984375 C 1.25 -0.46875 0.859375 -0.3125 0.3125 -0.3125 L 0.3125 0 C 0.546875 -0.015625 0.984375 -0.03125 1.328125 -0.03125 C 1.640625 -0.03125 2.15625 -0.015625 2.484375 0 L 2.484375 -0.3125 C 1.984375 -0.3125 1.734375 -0.5625 1.734375 -0.8125 C 1.734375 -0.84375 1.75 -0.953125 1.75 -0.96875 L 2.21875 -2.265625 L 4.671875 -2.265625 L 5.203125 -0.75 C 5.21875 -0.703125 5.234375 -0.640625 5.234375 -0.609375 C 5.234375 -0.3125 4.671875 -0.3125 4.40625 -0.3125 L 4.40625 0 C 4.765625 -0.03125 5.46875 -0.03125 5.84375 -0.03125 C 6.265625 -0.03125 6.734375 -0.015625 7.140625 0 L 7.140625 -0.3125 L 6.96875 -0.3125 C 6.375 -0.3125 6.234375 -0.375 6.125 -0.703125 Z M 3.4375 -5.828125 L 4.5625 -2.578125 L 2.328125 -2.578125 Z M 3.4375 -5.828125 "/>
</symbol>
<symbol overflow="visible" id="glyph6-2">
<path style="stroke:none;" d="M 0.5625 -3.40625 C 0.5625 -1.34375 2.171875 0.21875 4.03125 0.21875 C 5.65625 0.21875 6.625 -1.171875 6.625 -2.328125 C 6.625 -2.421875 6.625 -2.5 6.5 -2.5 C 6.390625 -2.5 6.390625 -2.4375 6.375 -2.328125 C 6.296875 -0.90625 5.234375 -0.09375 4.140625 -0.09375 C 3.53125 -0.09375 1.578125 -0.421875 1.578125 -3.40625 C 1.578125 -6.375 3.53125 -6.71875 4.140625 -6.71875 C 5.21875 -6.71875 6.109375 -5.8125 6.3125 -4.359375 C 6.328125 -4.21875 6.328125 -4.1875 6.46875 -4.1875 C 6.625 -4.1875 6.625 -4.21875 6.625 -4.421875 L 6.625 -6.78125 C 6.625 -6.953125 6.625 -7.03125 6.515625 -7.03125 C 6.484375 -7.03125 6.4375 -7.03125 6.359375 -6.90625 L 5.859375 -6.171875 C 5.5 -6.53125 4.984375 -7.03125 4.03125 -7.03125 C 2.15625 -7.03125 0.5625 -5.4375 0.5625 -3.40625 Z M 0.5625 -3.40625 "/>
</symbol>
<symbol overflow="visible" id="glyph6-3">
<path style="stroke:none;" d="M 2.21875 -1.71875 C 1.34375 -1.71875 1.34375 -2.71875 1.34375 -2.9375 C 1.34375 -3.203125 1.359375 -3.53125 1.5 -3.78125 C 1.578125 -3.890625 1.8125 -4.171875 2.21875 -4.171875 C 3.078125 -4.171875 3.078125 -3.1875 3.078125 -2.953125 C 3.078125 -2.6875 3.078125 -2.359375 2.921875 -2.109375 C 2.84375 -2 2.609375 -1.71875 2.21875 -1.71875 Z M 1.0625 -1.328125 C 1.0625 -1.359375 1.0625 -1.59375 1.21875 -1.796875 C 1.609375 -1.515625 2.03125 -1.484375 2.21875 -1.484375 C 3.140625 -1.484375 3.828125 -2.171875 3.828125 -2.9375 C 3.828125 -3.3125 3.671875 -3.671875 3.421875 -3.90625 C 3.78125 -4.25 4.140625 -4.296875 4.3125 -4.296875 C 4.34375 -4.296875 4.390625 -4.296875 4.421875 -4.28125 C 4.3125 -4.25 4.25 -4.140625 4.25 -4.015625 C 4.25 -3.84375 4.390625 -3.734375 4.546875 -3.734375 C 4.640625 -3.734375 4.828125 -3.796875 4.828125 -4.03125 C 4.828125 -4.203125 4.71875 -4.515625 4.328125 -4.515625 C 4.125 -4.515625 3.6875 -4.453125 3.265625 -4.046875 C 2.84375 -4.375 2.4375 -4.40625 2.21875 -4.40625 C 1.28125 -4.40625 0.59375 -3.71875 0.59375 -2.953125 C 0.59375 -2.515625 0.8125 -2.140625 1.0625 -1.921875 C 0.9375 -1.78125 0.75 -1.453125 0.75 -1.09375 C 0.75 -0.78125 0.890625 -0.40625 1.203125 -0.203125 C 0.59375 -0.046875 0.28125 0.390625 0.28125 0.78125 C 0.28125 1.5 1.265625 2.046875 2.484375 2.046875 C 3.65625 2.046875 4.6875 1.546875 4.6875 0.765625 C 4.6875 0.421875 4.5625 -0.09375 4.046875 -0.375 C 3.515625 -0.640625 2.9375 -0.640625 2.328125 -0.640625 C 2.078125 -0.640625 1.65625 -0.640625 1.578125 -0.65625 C 1.265625 -0.703125 1.0625 -1 1.0625 -1.328125 Z M 2.5 1.828125 C 1.484375 1.828125 0.796875 1.3125 0.796875 0.78125 C 0.796875 0.328125 1.171875 -0.046875 1.609375 -0.0625 L 2.203125 -0.0625 C 3.0625 -0.0625 4.171875 -0.0625 4.171875 0.78125 C 4.171875 1.328125 3.46875 1.828125 2.5 1.828125 Z M 2.5 1.828125 "/>
</symbol>
<symbol overflow="visible" id="glyph6-4">
<path style="stroke:none;" d="M 1.671875 -3.3125 L 1.671875 -4.40625 L 0.28125 -4.296875 L 0.28125 -3.984375 C 0.984375 -3.984375 1.0625 -3.921875 1.0625 -3.421875 L 1.0625 -0.75 C 1.0625 -0.3125 0.953125 -0.3125 0.28125 -0.3125 L 0.28125 0 C 0.671875 -0.015625 1.140625 -0.03125 1.421875 -0.03125 C 1.8125 -0.03125 2.28125 -0.03125 2.6875 0 L 2.6875 -0.3125 L 2.46875 -0.3125 C 1.734375 -0.3125 1.71875 -0.421875 1.71875 -0.78125 L 1.71875 -2.3125 C 1.71875 -3.296875 2.140625 -4.1875 2.890625 -4.1875 C 2.953125 -4.1875 2.984375 -4.1875 3 -4.171875 C 2.96875 -4.171875 2.765625 -4.046875 2.765625 -3.78125 C 2.765625 -3.515625 2.984375 -3.359375 3.203125 -3.359375 C 3.375 -3.359375 3.625 -3.484375 3.625 -3.796875 C 3.625 -4.109375 3.3125 -4.40625 2.890625 -4.40625 C 2.15625 -4.40625 1.796875 -3.734375 1.671875 -3.3125 Z M 1.671875 -3.3125 "/>
</symbol>
<symbol overflow="visible" id="glyph6-5">
<path style="stroke:none;" d="M 1.765625 -4.40625 L 0.375 -4.296875 L 0.375 -3.984375 C 1.015625 -3.984375 1.109375 -3.921875 1.109375 -3.4375 L 1.109375 -0.75 C 1.109375 -0.3125 1 -0.3125 0.328125 -0.3125 L 0.328125 0 C 0.640625 -0.015625 1.1875 -0.03125 1.421875 -0.03125 C 1.78125 -0.03125 2.125 -0.015625 2.46875 0 L 2.46875 -0.3125 C 1.796875 -0.3125 1.765625 -0.359375 1.765625 -0.75 Z M 1.796875 -6.140625 C 1.796875 -6.453125 1.5625 -6.671875 1.28125 -6.671875 C 0.96875 -6.671875 0.75 -6.40625 0.75 -6.140625 C 0.75 -5.875 0.96875 -5.609375 1.28125 -5.609375 C 1.5625 -5.609375 1.796875 -5.828125 1.796875 -6.140625 Z M 1.796875 -6.140625 "/>
</symbol>
<symbol overflow="visible" id="glyph6-6">
<path style="stroke:none;" d="M 3.78125 -0.546875 L 3.78125 0.109375 L 5.25 0 L 5.25 -0.3125 C 4.5625 -0.3125 4.46875 -0.375 4.46875 -0.875 L 4.46875 -6.921875 L 3.046875 -6.8125 L 3.046875 -6.5 C 3.734375 -6.5 3.8125 -6.4375 3.8125 -5.9375 L 3.8125 -3.78125 C 3.53125 -4.140625 3.09375 -4.40625 2.5625 -4.40625 C 1.390625 -4.40625 0.34375 -3.421875 0.34375 -2.140625 C 0.34375 -0.875 1.3125 0.109375 2.453125 0.109375 C 3.09375 0.109375 3.53125 -0.234375 3.78125 -0.546875 Z M 3.78125 -3.21875 L 3.78125 -1.171875 C 3.78125 -1 3.78125 -0.984375 3.671875 -0.8125 C 3.375 -0.328125 2.9375 -0.109375 2.5 -0.109375 C 2.046875 -0.109375 1.6875 -0.375 1.453125 -0.75 C 1.203125 -1.15625 1.171875 -1.71875 1.171875 -2.140625 C 1.171875 -2.5 1.1875 -3.09375 1.46875 -3.546875 C 1.6875 -3.859375 2.0625 -4.1875 2.609375 -4.1875 C 2.953125 -4.1875 3.375 -4.03125 3.671875 -3.59375 C 3.78125 -3.421875 3.78125 -3.40625 3.78125 -3.21875 Z M 3.78125 -3.21875 "/>
</symbol>
<symbol overflow="visible" id="glyph6-7">
<path style="stroke:none;" d="M 2.9375 -6.375 C 2.9375 -6.625 2.9375 -6.640625 2.703125 -6.640625 C 2.078125 -6 1.203125 -6 0.890625 -6 L 0.890625 -5.6875 C 1.09375 -5.6875 1.671875 -5.6875 2.1875 -5.953125 L 2.1875 -0.78125 C 2.1875 -0.421875 2.15625 -0.3125 1.265625 -0.3125 L 0.953125 -0.3125 L 0.953125 0 C 1.296875 -0.03125 2.15625 -0.03125 2.5625 -0.03125 C 2.953125 -0.03125 3.828125 -0.03125 4.171875 0 L 4.171875 -0.3125 L 3.859375 -0.3125 C 2.953125 -0.3125 2.9375 -0.421875 2.9375 -0.78125 Z M 2.9375 -6.375 "/>
</symbol>
<symbol overflow="visible" id="glyph6-8">
<path style="stroke:none;" d="M 1.265625 -0.765625 L 2.328125 -1.796875 C 3.875 -3.171875 4.46875 -3.703125 4.46875 -4.703125 C 4.46875 -5.84375 3.578125 -6.640625 2.359375 -6.640625 C 1.234375 -6.640625 0.5 -5.71875 0.5 -4.828125 C 0.5 -4.28125 1 -4.28125 1.03125 -4.28125 C 1.203125 -4.28125 1.546875 -4.390625 1.546875 -4.8125 C 1.546875 -5.0625 1.359375 -5.328125 1.015625 -5.328125 C 0.9375 -5.328125 0.921875 -5.328125 0.890625 -5.3125 C 1.109375 -5.96875 1.65625 -6.328125 2.234375 -6.328125 C 3.140625 -6.328125 3.5625 -5.515625 3.5625 -4.703125 C 3.5625 -3.90625 3.078125 -3.125 2.515625 -2.5 L 0.609375 -0.375 C 0.5 -0.265625 0.5 -0.234375 0.5 0 L 4.203125 0 L 4.46875 -1.734375 L 4.234375 -1.734375 C 4.171875 -1.4375 4.109375 -1 4 -0.84375 C 3.9375 -0.765625 3.28125 -0.765625 3.0625 -0.765625 Z M 1.265625 -0.765625 "/>
</symbol>
<symbol overflow="visible" id="glyph6-9">
<path style="stroke:none;" d="M 2.890625 -3.515625 C 3.703125 -3.78125 4.28125 -4.46875 4.28125 -5.265625 C 4.28125 -6.078125 3.40625 -6.640625 2.453125 -6.640625 C 1.453125 -6.640625 0.6875 -6.046875 0.6875 -5.28125 C 0.6875 -4.953125 0.90625 -4.765625 1.203125 -4.765625 C 1.5 -4.765625 1.703125 -4.984375 1.703125 -5.28125 C 1.703125 -5.765625 1.234375 -5.765625 1.09375 -5.765625 C 1.390625 -6.265625 2.046875 -6.390625 2.40625 -6.390625 C 2.828125 -6.390625 3.375 -6.171875 3.375 -5.28125 C 3.375 -5.15625 3.34375 -4.578125 3.09375 -4.140625 C 2.796875 -3.65625 2.453125 -3.625 2.203125 -3.625 C 2.125 -3.609375 1.890625 -3.59375 1.8125 -3.59375 C 1.734375 -3.578125 1.671875 -3.5625 1.671875 -3.46875 C 1.671875 -3.359375 1.734375 -3.359375 1.90625 -3.359375 L 2.34375 -3.359375 C 3.15625 -3.359375 3.53125 -2.6875 3.53125 -1.703125 C 3.53125 -0.34375 2.84375 -0.0625 2.40625 -0.0625 C 1.96875 -0.0625 1.21875 -0.234375 0.875 -0.8125 C 1.21875 -0.765625 1.53125 -0.984375 1.53125 -1.359375 C 1.53125 -1.71875 1.265625 -1.921875 0.984375 -1.921875 C 0.734375 -1.921875 0.421875 -1.78125 0.421875 -1.34375 C 0.421875 -0.4375 1.34375 0.21875 2.4375 0.21875 C 3.65625 0.21875 4.5625 -0.6875 4.5625 -1.703125 C 4.5625 -2.515625 3.921875 -3.296875 2.890625 -3.515625 Z M 2.890625 -3.515625 "/>
</symbol>
</g>
</defs>
<g id="surface359446">
<path style="fill:none;stroke-width:0.4;stroke-linecap:butt;stroke-linejoin:round;stroke:rgb(100%,54.9%,0%);stroke-opacity:1;stroke-miterlimit:10;" d="M 248 553 L 248 541 L 260 541 L 260 553 Z M 248 553 " transform="matrix(1,0,0,-1,-115,731)"/>
<path style="fill:none;stroke-width:0.4;stroke-linecap:butt;stroke-linejoin:round;stroke:rgb(100%,54.9%,0%);stroke-opacity:1;stroke-miterlimit:10;" d="M 260 553 L 248 541 " transform="matrix(1,0,0,-1,-115,731)"/>
<g style="fill:rgb(100%,54.9%,0%);fill-opacity:1;">
  <use xlink:href="#glyph0-1" x="138" y="188"/>
</g>
<g style="fill:rgb(100%,54.9%,0%);fill-opacity:1;">
  <use xlink:href="#glyph1-1" x="134" y="183"/>
</g>
<path style="fill:none;stroke-width:0.4;stroke-linecap:butt;stroke-linejoin:round;stroke:rgb(100%,54.9%,0%);stroke-opacity:1;stroke-miterlimit:10;" d="M 146 586 L 146 574 L 158 574 L 158 586 Z M 146 586 " transform="matrix(1,0,0,-1,-115,731)"/>
<path style="fill:none;stroke-width:0.4;stroke-linecap:butt;stroke-linejoin:round;stroke:rgb(100%,54.9%,0%);stroke-opacity:1;stroke-miterlimit:10;" d="M 158 586 L 146 574 " transform="matrix(1,0,0,-1,-115,731)"/>
<g style="fill:rgb(100%,54.9%,0%);fill-opacity:1;">
  <use xlink:href="#glyph0-1" x="36" y="155"/>
</g>
<g style="fill:rgb(100%,54.9%,0%);fill-opacity:1;">
  <use xlink:href="#glyph1-1" x="32" y="150"/>
</g>
<path style="fill:none;stroke-width:0.4;stroke-linecap:butt;stroke-linejoin:round;stroke:rgb(54.5%,0%,0%);stroke-opacity:1;stroke-miterlimit:10;" d="M 248 547 L 173.53125 547 L 173.53125 608 L 152 608 " transform="matrix(1,0,0,-1,-115,731)"/>
<path style="fill:none;stroke-width:0.8;stroke-linecap:butt;stroke-linejoin:round;stroke:rgb(0%,39.2%,0%);stroke-opacity:1;stroke-miterlimit:10;" d="M 197 674 L 229 674 " transform="matrix(1,0,0,-1,-115,731)"/>
<path style="fill:none;stroke-width:0.8;stroke-linecap:butt;stroke-linejoin:round;stroke:rgb(0%,39.2%,0%);stroke-opacity:1;stroke-miterlimit:10;" d="M 300 622 L 300 598 " transform="matrix(1,0,0,-1,-115,731)"/>
<path style="fill:none;stroke-width:0.4;stroke-linecap:butt;stroke-linejoin:round;stroke:rgb(100%,54.9%,0%);stroke-opacity:1;stroke-miterlimit:10;" d="M 248 586 L 248 574 L 260 574 L 260 586 Z M 248 586 " transform="matrix(1,0,0,-1,-115,731)"/>
<path style="fill:none;stroke-width:0.4;stroke-linecap:butt;stroke-linejoin:round;stroke:rgb(100%,54.9%,0%);stroke-opacity:1;stroke-miterlimit:10;" d="M 260 586 L 248 574 " transform="matrix(1,0,0,-1,-115,731)"/>
<g style="fill:rgb(100%,54.9%,0%);fill-opacity:1;">
  <use xlink:href="#glyph0-1" x="138" y="155"/>
</g>
<g style="fill:rgb(100%,54.9%,0%);fill-opacity:1;">
  <use xlink:href="#glyph1-1" x="134" y="150"/>
</g>
<path style="fill:none;stroke-width:0.8;stroke-linecap:butt;stroke-linejoin:round;stroke:rgb(100%,0%,0%);stroke-opacity:1;stroke-miterlimit:10;" d="M 244 592 L 244 568 " transform="matrix(1,0,0,-1,-115,731)"/>
<path style="fill:none;stroke-width:0.8;stroke-linecap:butt;stroke-linejoin:round;stroke:rgb(100%,0%,0%);stroke-opacity:1;stroke-miterlimit:10;" d="M 244 561 L 244 537 " transform="matrix(1,0,0,-1,-115,731)"/>
<path style="fill:none;stroke-width:0.8;stroke-linecap:butt;stroke-linejoin:round;stroke:rgb(0%,39.2%,0%);stroke-opacity:1;stroke-miterlimit:10;" d="M 314 648 L 346 648 " transform="matrix(1,0,0,-1,-115,731)"/>
<path style="fill:none;stroke-width:0.8;stroke-linecap:butt;stroke-linejoin:round;stroke:rgb(0%,39.2%,0%);stroke-opacity:1;stroke-miterlimit:10;" d="M 392 588 L 392 560 " transform="matrix(1,0,0,-1,-115,731)"/>
<path style="fill:none;stroke-width:0.4;stroke-linecap:butt;stroke-linejoin:round;stroke:rgb(0%,0%,54.5%);stroke-opacity:1;stroke-miterlimit:10;" d="M 208 680 L 208 674 " transform="matrix(1,0,0,-1,-115,731)"/>
<path style="fill:none;stroke-width:0.4;stroke-linecap:butt;stroke-linejoin:round;stroke:rgb(0%,0%,54.5%);stroke-opacity:1;stroke-miterlimit:10;" d="M 216 688 C 216 692.417969 212.417969 696 208 696 C 203.582031 696 200 692.417969 200 688 C 200 683.582031 203.582031 680 208 680 C 212.417969 680 216 683.582031 216 688 Z M 216 688 " transform="matrix(1,0,0,-1,-115,731)"/>
<g style="fill:rgb(0%,0%,54.5%);fill-opacity:1;">
  <use xlink:href="#glyph2-1" x="89" y="45"/>
</g>
<path style="fill:none;stroke-width:0.4;stroke-linecap:butt;stroke-linejoin:round;stroke:rgb(0%,0%,54.5%);stroke-opacity:1;stroke-miterlimit:10;" d="M 342 664 C 342 668.417969 338.417969 672 334 672 C 329.582031 672 326 668.417969 326 664 C 326 659.582031 329.582031 656 334 656 C 338.417969 656 342 659.582031 342 664 Z M 342 664 " transform="matrix(1,0,0,-1,-115,731)"/>
<g style="fill:rgb(0%,0%,54.5%);fill-opacity:1;">
  <use xlink:href="#glyph2-1" x="215" y="69"/>
</g>
<path style="fill:none;stroke-width:0.4;stroke-linecap:butt;stroke-linejoin:round;stroke:rgb(0%,0%,54.5%);stroke-opacity:1;stroke-miterlimit:10;" d="M 416 576 C 416 580.417969 412.417969 584 408 584 C 403.582031 584 400 580.417969 400 576 C 400 571.582031 403.582031 568 408 568 C 412.417969 568 416 571.582031 416 576 Z M 416 576 " transform="matrix(1,0,0,-1,-115,731)"/>
<g style="fill:rgb(0%,0%,54.5%);fill-opacity:1;">
  <use xlink:href="#glyph2-1" x="289" y="157"/>
</g>
<path style="fill:none;stroke-width:0.8;stroke-linecap:butt;stroke-linejoin:round;stroke:rgb(100%,0%,0%);stroke-opacity:1;stroke-miterlimit:10;" d="M 140 588 L 164 588 " transform="matrix(1,0,0,-1,-115,731)"/>
<path style="fill:none;stroke-width:0.8;stroke-linecap:butt;stroke-linejoin:round;stroke:rgb(100%,0%,0%);stroke-opacity:1;stroke-miterlimit:10;" d="M 152 596 L 152 620 " transform="matrix(1,0,0,-1,-115,731)"/>
<path style="fill-rule:evenodd;fill:rgb(82.7%,82.7%,82.7%);fill-opacity:0.3;stroke-width:0.4;stroke-linecap:butt;stroke-linejoin:round;stroke:rgb(0%,0%,0%);stroke-opacity:1;stroke-miterlimit:10;" d="M 376 730.003906 L 376 646.003906 L 484 646.003906 L 484 730.003906 Z M 376 730.003906 " transform="matrix(1,0,0,-1,-115,731)"/>
<path style="fill:none;stroke-width:0.8;stroke-linecap:butt;stroke-linejoin:round;stroke:rgb(0%,39.2%,0%);stroke-opacity:1;stroke-miterlimit:10;" d="M 384 724 L 396 724 " transform="matrix(1,0,0,-1,-115,731)"/>
<g style="fill:rgb(0%,39.2%,0%);fill-opacity:1;">
  <use xlink:href="#glyph3-1" x="289" y="10"/>
  <use xlink:href="#glyph3-2" x="295.644102" y="10"/>
  <use xlink:href="#glyph3-3" x="305.372646" y="10"/>
  <use xlink:href="#glyph3-4" x="310.492461" y="10"/>
  <use xlink:href="#glyph3-5" x="315.612275" y="10"/>
</g>
<path style="fill:none;stroke-width:0.8;stroke-linecap:butt;stroke-linejoin:round;stroke:rgb(0%,0%,54.5%);stroke-opacity:1;stroke-miterlimit:10;" d="M 384 712 L 396 712 " transform="matrix(1,0,0,-1,-115,731)"/>
<g style="fill:rgb(0%,0%,54.5%);fill-opacity:1;">
  <use xlink:href="#glyph3-1" x="289" y="22"/>
  <use xlink:href="#glyph3-2" x="295.644102" y="22"/>
  <use xlink:href="#glyph3-3" x="305.372646" y="22"/>
  <use xlink:href="#glyph3-6" x="310.492461" y="22"/>
  <use xlink:href="#glyph3-7" x="314.096954" y="22"/>
  <use xlink:href="#glyph3-8" x="318.696717" y="22"/>
  <use xlink:href="#glyph3-9" x="323.816531" y="22"/>
  <use xlink:href="#glyph3-10" x="327.645184" y="22"/>
</g>
<path style="fill:none;stroke-width:0.8;stroke-linecap:butt;stroke-linejoin:round;stroke:rgb(100%,0%,0%);stroke-opacity:1;stroke-miterlimit:10;" d="M 384 700 L 396 700 " transform="matrix(1,0,0,-1,-115,731)"/>
<g style="fill:rgb(100%,0%,0%);fill-opacity:1;">
  <use xlink:href="#glyph3-11" x="289" y="34"/>
  <use xlink:href="#glyph3-2" x="296.038624" y="34"/>
  <use xlink:href="#glyph3-3" x="305.767168" y="34"/>
  <use xlink:href="#glyph3-4" x="310.886982" y="34"/>
  <use xlink:href="#glyph3-5" x="316.006797" y="34"/>
</g>
<path style="fill:none;stroke-width:0.8;stroke-linecap:butt;stroke-linejoin:round;stroke:rgb(54.5%,0%,0%);stroke-opacity:1;stroke-miterlimit:10;" d="M 384 688 L 396 688 " transform="matrix(1,0,0,-1,-115,731)"/>
<g style="fill:rgb(54.5%,0%,0%);fill-opacity:1;">
  <use xlink:href="#glyph3-11" x="289" y="46"/>
  <use xlink:href="#glyph3-2" x="296.038624" y="46"/>
  <use xlink:href="#glyph3-3" x="305.767168" y="46"/>
  <use xlink:href="#glyph3-6" x="310.886982" y="46"/>
  <use xlink:href="#glyph3-7" x="314.491475" y="46"/>
  <use xlink:href="#glyph3-8" x="319.091238" y="46"/>
  <use xlink:href="#glyph3-9" x="324.211053" y="46"/>
  <use xlink:href="#glyph3-10" x="328.039706" y="46"/>
</g>
<path style="fill:none;stroke-width:0.8;stroke-linecap:butt;stroke-linejoin:round;stroke:rgb(0%,0%,0%);stroke-opacity:1;stroke-miterlimit:10;" d="M 384 676 L 396 676 " transform="matrix(1,0,0,-1,-115,731)"/>
<g style="fill:rgb(0%,0%,0%);fill-opacity:1;">
  <use xlink:href="#glyph4-1" x="289" y="58"/>
  <use xlink:href="#glyph4-2" x="296.226918" y="58"/>
  <use xlink:href="#glyph4-3" x="300.324563" y="58"/>
  <use xlink:href="#glyph4-2" x="305.444378" y="58"/>
  <use xlink:href="#glyph4-4" x="309.542022" y="58"/>
  <use xlink:href="#glyph4-5" x="313.146515" y="58"/>
  <use xlink:href="#glyph4-6" x="317.746278" y="58"/>
  <use xlink:href="#glyph4-7" x="321.323872" y="58"/>
  <use xlink:href="#glyph4-4" x="325.923635" y="58"/>
</g>
<path style="fill:none;stroke-width:0.8;stroke-linecap:butt;stroke-linejoin:round;stroke:rgb(100%,54.9%,0%);stroke-opacity:1;stroke-miterlimit:10;" d="M 384 664 L 396 664 " transform="matrix(1,0,0,-1,-115,731)"/>
<g style="fill:rgb(100%,54.9%,0%);fill-opacity:1;">
  <use xlink:href="#glyph5-1" x="289" y="69.998"/>
  <use xlink:href="#glyph5-2" x="295.644102" y="69.998"/>
  <use xlink:href="#glyph5-3" x="302.297171" y="69.998"/>
  <use xlink:href="#glyph5-4" x="306.896934" y="69.998"/>
  <use xlink:href="#glyph5-2" x="313.935558" y="69.998"/>
  <use xlink:href="#glyph5-5" x="323.664102" y="69.998"/>
  <use xlink:href="#glyph5-6" x="327.752781" y="69.998"/>
  <use xlink:href="#glyph5-7" x="332.352544" y="69.998"/>
  <use xlink:href="#glyph5-8" x="337.212333" y="69.998"/>
  <use xlink:href="#glyph5-9" x="341.821062" y="69.998"/>
  <use xlink:href="#glyph5-10" x="345.918707" y="69.998"/>
  <use xlink:href="#glyph5-11" x="349.5232" y="69.998"/>
  <use xlink:href="#glyph5-9" x="353.100794" y="69.998"/>
  <use xlink:href="#glyph5-10" x="357.198438" y="69.998"/>
</g>
<path style="fill:none;stroke-width:0.8;stroke-linecap:butt;stroke-linejoin:round;stroke:rgb(0%,39.2%,0%);stroke-opacity:1;stroke-miterlimit:10;" d="M 264 592 L 264 568 " transform="matrix(1,0,0,-1,-115,731)"/>
<path style="fill:none;stroke-width:0.4;stroke-linecap:butt;stroke-linejoin:round;stroke:rgb(0%,0%,54.5%);stroke-opacity:1;stroke-miterlimit:10;" d="M 260 580 L 273 580 " transform="matrix(1,0,0,-1,-115,731)"/>
<path style="fill:none;stroke-width:0.4;stroke-linecap:butt;stroke-linejoin:round;stroke:rgb(0%,0%,54.5%);stroke-opacity:1;stroke-miterlimit:10;" d="M 326 569 L 343 569 " transform="matrix(1,0,0,-1,-115,731)"/>
<path style="fill:none;stroke-width:0.4;stroke-linecap:butt;stroke-linejoin:round;stroke:rgb(0%,0%,54.5%);stroke-opacity:1;stroke-miterlimit:10;" d="M 356 548 L 376 548 " transform="matrix(1,0,0,-1,-115,731)"/>
<path style="fill:none;stroke-width:0.8;stroke-linecap:butt;stroke-linejoin:round;stroke:rgb(0%,39.2%,0%);stroke-opacity:1;stroke-miterlimit:10;" d="M 264 561 L 264 537 " transform="matrix(1,0,0,-1,-115,731)"/>
<path style="fill:none;stroke-width:0.4;stroke-linecap:butt;stroke-linejoin:round;stroke:rgb(0%,0%,54.5%);stroke-opacity:1;stroke-miterlimit:10;" d="M 260 549 L 274 549 " transform="matrix(1,0,0,-1,-115,731)"/>
<path style="fill:none;stroke-width:0.4;stroke-linecap:butt;stroke-linejoin:round;stroke:rgb(0%,0%,54.5%);stroke-opacity:1;stroke-miterlimit:10;" d="M 260 545 L 274 545 " transform="matrix(1,0,0,-1,-115,731)"/>
<path style="fill:none;stroke-width:0.8;stroke-linecap:butt;stroke-linejoin:round;stroke:rgb(0%,39.2%,0%);stroke-opacity:1;stroke-miterlimit:10;" d="M 140 570 L 164 570 " transform="matrix(1,0,0,-1,-115,731)"/>
<path style="fill:none;stroke-width:0.4;stroke-linecap:butt;stroke-linejoin:round;stroke:rgb(0%,39.2%,0%);stroke-opacity:1;stroke-miterlimit:10;" d="M 152 570 L 152 574 " transform="matrix(1,0,0,-1,-115,731)"/>
<path style="fill:none;stroke-width:0.4;stroke-linecap:butt;stroke-linejoin:round;stroke:rgb(54.5%,0%,0%);stroke-opacity:1;stroke-miterlimit:10;" d="M 152 604 L 156 604 L 156 590 L 152 590 L 152 586 " transform="matrix(1,0,0,-1,-115,731)"/>
<path style="fill:none;stroke-width:0.8;stroke-linecap:butt;stroke-linejoin:round;stroke:rgb(0%,39.2%,0%);stroke-opacity:1;stroke-miterlimit:10;" d="M 300 622 L 300 598 " transform="matrix(1,0,0,-1,-115,731)"/>
<path style="fill:none;stroke-width:0.4;stroke-linecap:butt;stroke-linejoin:round;stroke:rgb(0%,0%,54.5%);stroke-opacity:1;stroke-miterlimit:10;" d="M 260 549 L 280 549 L 280 569 L 300 569 " transform="matrix(1,0,0,-1,-115,731)"/>
<path style="fill:none;stroke-width:0.4;stroke-linecap:butt;stroke-linejoin:round;stroke:rgb(0%,0%,54.5%);stroke-opacity:1;stroke-miterlimit:10;" d="M 260 545 L 284 545 L 284 565 L 300 565 " transform="matrix(1,0,0,-1,-115,731)"/>
<path style="fill:none;stroke-width:0.8;stroke-linecap:butt;stroke-linejoin:round;stroke:rgb(0%,39.2%,0%);stroke-opacity:1;stroke-miterlimit:10;" d="M 300 580 L 300 556 " transform="matrix(1,0,0,-1,-115,731)"/>
<path style="fill:none;stroke-width:0.4;stroke-linecap:butt;stroke-linejoin:round;stroke:rgb(0%,0%,54.5%);stroke-opacity:1;stroke-miterlimit:10;" d="M 368 548 L 384 548 " transform="matrix(1,0,0,-1,-115,731)"/>
<path style="fill:none;stroke-width:0.8;stroke-linecap:butt;stroke-linejoin:round;stroke:rgb(0%,39.2%,0%);stroke-opacity:1;stroke-miterlimit:10;" d="M 384 560 L 384 536 " transform="matrix(1,0,0,-1,-115,731)"/>
<path style="fill:none;stroke-width:0.8;stroke-linecap:butt;stroke-linejoin:round;stroke:rgb(0%,39.2%,0%);stroke-opacity:1;stroke-miterlimit:10;" d="M 358 620 L 358 596 " transform="matrix(1,0,0,-1,-115,731)"/>
<path style="fill:none;stroke-width:0.8;stroke-linecap:butt;stroke-linejoin:round;stroke:rgb(0%,39.2%,0%);stroke-opacity:1;stroke-miterlimit:10;" d="M 384 620 L 384 596 " transform="matrix(1,0,0,-1,-115,731)"/>
<path style="fill:none;stroke-width:0.4;stroke-linecap:butt;stroke-linejoin:round;stroke:rgb(0%,0%,54.5%);stroke-opacity:1;stroke-miterlimit:10;" d="M 327 569 L 315 569 " transform="matrix(1,0,0,-1,-115,731)"/>
<path style="fill:none;stroke-width:0.8;stroke-linecap:butt;stroke-linejoin:round;stroke:rgb(54.5%,0%,54.5%);stroke-opacity:1;stroke-miterlimit:10;" d="M 384 652 L 396 652 " transform="matrix(1,0,0,-1,-115,731)"/>
<g style="fill:rgb(54.5%,0%,54.5%);fill-opacity:1;">
  <use xlink:href="#glyph3-12" x="289" y="82"/>
  <use xlink:href="#glyph3-13" x="294.756429" y="82"/>
  <use xlink:href="#glyph3-7" x="299.356192" y="82"/>
  <use xlink:href="#glyph3-14" x="303.955955" y="82"/>
</g>
<path style="fill:none;stroke-width:0.4;stroke-linecap:butt;stroke-linejoin:round;stroke:rgb(54.5%,0%,54.5%);stroke-opacity:1;stroke-miterlimit:10;" d="M 392 564 L 400 564 " transform="matrix(1,0,0,-1,-115,731)"/>
<path style="fill:none;stroke-width:0.4;stroke-linecap:butt;stroke-linejoin:round;stroke:rgb(54.5%,0%,54.5%);stroke-opacity:1;stroke-miterlimit:10;" d="M 400 561 L 400 567 L 406 564 Z M 400 561 " transform="matrix(1,0,0,-1,-115,731)"/>
<path style="fill-rule:evenodd;fill:rgb(82.7%,82.7%,82.7%);fill-opacity:0.3;stroke-width:0.4;stroke-linecap:butt;stroke-linejoin:round;stroke:rgb(0%,0%,0%);stroke-opacity:1;stroke-miterlimit:10;" d="M 376 730.003906 L 376 646.003906 L 484 646.003906 L 484 730.003906 Z M 376 730.003906 " transform="matrix(1,0,0,-1,-115,731)"/>
<path style="fill:none;stroke-width:0.8;stroke-linecap:butt;stroke-linejoin:round;stroke:rgb(54.5%,0%,54.5%);stroke-opacity:1;stroke-miterlimit:10;" d="M 384 652 L 396 652 " transform="matrix(1,0,0,-1,-115,731)"/>
<g style="fill:rgb(54.5%,0%,54.5%);fill-opacity:1;">
  <use xlink:href="#glyph3-12" x="289" y="82"/>
  <use xlink:href="#glyph3-13" x="294.756429" y="82"/>
  <use xlink:href="#glyph3-7" x="299.356192" y="82"/>
  <use xlink:href="#glyph3-14" x="303.955955" y="82"/>
</g>
<path style="fill:none;stroke-width:0.4;stroke-linecap:butt;stroke-linejoin:round;stroke:rgb(54.5%,0%,54.5%);stroke-opacity:1;stroke-miterlimit:10;" d="M 392 564 L 400 564 " transform="matrix(1,0,0,-1,-115,731)"/>
<path style="fill:none;stroke-width:0.4;stroke-linecap:butt;stroke-linejoin:round;stroke:rgb(54.5%,0%,54.5%);stroke-opacity:1;stroke-miterlimit:10;" d="M 400 561 L 400 567 L 406 564 Z M 400 561 " transform="matrix(1,0,0,-1,-115,731)"/>
<path style="fill:none;stroke-width:0.4;stroke-linecap:butt;stroke-linejoin:round;stroke:rgb(54.5%,0%,54.5%);stroke-opacity:1;stroke-miterlimit:10;" d="M 318 656 L 318 648 " transform="matrix(1,0,0,-1,-115,731)"/>
<path style="fill:none;stroke-width:0.5;stroke-linecap:butt;stroke-linejoin:round;stroke:rgb(0%,0%,0%);stroke-opacity:1;stroke-miterlimit:10;" d="M 300 608 L 276 608 " transform="matrix(1,0,0,-1,-115,731)"/>
<path style="fill:none;stroke-width:0.4;stroke-linecap:butt;stroke-linejoin:round;stroke:rgb(0%,0%,0%);stroke-opacity:1;stroke-miterlimit:10;" d="M 274 622 L 274 606 L 276 606 L 276 622 Z M 274 622 " transform="matrix(1,0,0,-1,-115,731)"/>
<path style="fill:none;stroke-width:0.4;stroke-linecap:butt;stroke-linejoin:round;stroke:rgb(0%,0%,0%);stroke-opacity:1;stroke-miterlimit:10;" d="M 264.363281 624.160156 C 262.355469 625.042969 262.527344 625.6875 264.707031 625.449219 C 266.886719 625.210938 271.074219 624.085938 273.078125 623.203125 C 275.085938 622.320312 274.914062 621.679688 272.734375 621.917969 C 270.554688 622.15625 266.371094 623.277344 264.363281 624.160156 Z M 264.363281 624.160156 " transform="matrix(1,0,0,-1,-115,731)"/>
<path style="fill-rule:evenodd;fill:rgb(100%,100%,100%);fill-opacity:1;stroke-width:0.4;stroke-linecap:butt;stroke-linejoin:round;stroke:rgb(0%,0%,0%);stroke-opacity:1;stroke-miterlimit:10;" d="M 278.464844 611.726562 C 278.703125 609.546875 278.0625 609.375 277.179688 611.382812 C 276.296875 613.390625 275.171875 617.574219 274.933594 619.753906 C 274.695312 621.933594 275.339844 622.105469 276.222656 620.097656 C 277.105469 618.09375 278.226562 613.90625 278.464844 611.726562 Z M 278.464844 611.726562 " transform="matrix(1,0,0,-1,-115,731)"/>
<path style="fill:none;stroke-width:0.4;stroke-linecap:butt;stroke-linejoin:round;stroke:rgb(0%,0%,0%);stroke-opacity:1;stroke-miterlimit:10;" d="M 282.179688 630.15625 C 283.949219 631.453125 284.417969 630.980469 283.121094 629.210938 C 281.828125 627.445312 278.761719 624.382812 276.996094 623.085938 C 275.226562 621.789062 274.753906 622.261719 276.050781 624.027344 C 277.347656 625.796875 280.410156 628.859375 282.179688 630.15625 Z M 282.179688 630.15625 " transform="matrix(1,0,0,-1,-115,731)"/>
<path style="fill-rule:evenodd;fill:rgb(100%,100%,100%);fill-opacity:1;stroke-width:0.4;stroke-linecap:butt;stroke-linejoin:round;stroke:rgb(0%,0%,0%);stroke-opacity:1;stroke-miterlimit:10;" d="M 273.066406 622.519531 C 272.378906 619.941406 276.242188 618.90625 276.929688 621.484375 C 277.621094 624.058594 273.757812 625.09375 273.066406 622.519531 Z M 273.066406 622.519531 " transform="matrix(1,0,0,-1,-115,731)"/>
<path style="fill:none;stroke-width:0.4;stroke-linecap:butt;stroke-linejoin:round;stroke:rgb(0%,0%,0%);stroke-opacity:1;stroke-miterlimit:10;" d="M 319 501 L 319 485 L 321 485 L 321 501 Z M 319 501 " transform="matrix(1,0,0,-1,-115,731)"/>
<path style="fill:none;stroke-width:0.4;stroke-linecap:butt;stroke-linejoin:round;stroke:rgb(0%,0%,0%);stroke-opacity:1;stroke-miterlimit:10;" d="M 309.363281 503.160156 C 307.355469 504.042969 307.527344 504.6875 309.707031 504.449219 C 311.886719 504.210938 316.074219 503.085938 318.078125 502.203125 C 320.085938 501.320312 319.914062 500.679688 317.734375 500.917969 C 315.554688 501.15625 311.371094 502.277344 309.363281 503.160156 Z M 309.363281 503.160156 " transform="matrix(1,0,0,-1,-115,731)"/>
<path style="fill-rule:evenodd;fill:rgb(100%,100%,100%);fill-opacity:1;stroke-width:0.4;stroke-linecap:butt;stroke-linejoin:round;stroke:rgb(0%,0%,0%);stroke-opacity:1;stroke-miterlimit:10;" d="M 323.464844 490.726562 C 323.703125 488.546875 323.0625 488.375 322.179688 490.382812 C 321.296875 492.390625 320.171875 496.574219 319.933594 498.753906 C 319.695312 500.933594 320.339844 501.105469 321.222656 499.097656 C 322.105469 497.09375 323.226562 492.90625 323.464844 490.726562 Z M 323.464844 490.726562 " transform="matrix(1,0,0,-1,-115,731)"/>
<path style="fill:none;stroke-width:0.4;stroke-linecap:butt;stroke-linejoin:round;stroke:rgb(0%,0%,0%);stroke-opacity:1;stroke-miterlimit:10;" d="M 327.179688 509.15625 C 328.949219 510.453125 329.417969 509.980469 328.121094 508.210938 C 326.828125 506.445312 323.761719 503.382812 321.996094 502.085938 C 320.226562 500.789062 319.753906 501.261719 321.050781 503.027344 C 322.347656 504.796875 325.410156 507.859375 327.179688 509.15625 Z M 327.179688 509.15625 " transform="matrix(1,0,0,-1,-115,731)"/>
<path style="fill-rule:evenodd;fill:rgb(100%,100%,100%);fill-opacity:1;stroke-width:0.4;stroke-linecap:butt;stroke-linejoin:round;stroke:rgb(0%,0%,0%);stroke-opacity:1;stroke-miterlimit:10;" d="M 318.066406 501.519531 C 317.378906 498.941406 321.242188 497.90625 321.929688 500.484375 C 322.621094 503.058594 318.757812 504.09375 318.066406 501.519531 Z M 318.066406 501.519531 " transform="matrix(1,0,0,-1,-115,731)"/>
<path style="fill:none;stroke-width:0.4;stroke-linecap:butt;stroke-linejoin:round;stroke:rgb(0%,0%,0%);stroke-opacity:1;stroke-miterlimit:10;" d="M 132 501 L 132 485 L 134 485 L 134 501 Z M 132 501 " transform="matrix(1,0,0,-1,-115,731)"/>
<path style="fill:none;stroke-width:0.4;stroke-linecap:butt;stroke-linejoin:round;stroke:rgb(0%,0%,0%);stroke-opacity:1;stroke-miterlimit:10;" d="M 122.363281 503.160156 C 120.355469 504.042969 120.527344 504.6875 122.707031 504.449219 C 124.886719 504.210938 129.074219 503.085938 131.078125 502.203125 C 133.085938 501.320312 132.914062 500.679688 130.734375 500.917969 C 128.554688 501.15625 124.371094 502.277344 122.363281 503.160156 Z M 122.363281 503.160156 " transform="matrix(1,0,0,-1,-115,731)"/>
<path style="fill-rule:evenodd;fill:rgb(100%,100%,100%);fill-opacity:1;stroke-width:0.4;stroke-linecap:butt;stroke-linejoin:round;stroke:rgb(0%,0%,0%);stroke-opacity:1;stroke-miterlimit:10;" d="M 136.464844 490.726562 C 136.703125 488.546875 136.0625 488.375 135.179688 490.382812 C 134.296875 492.390625 133.171875 496.574219 132.933594 498.753906 C 132.695312 500.933594 133.339844 501.105469 134.222656 499.097656 C 135.105469 497.09375 136.226562 492.90625 136.464844 490.726562 Z M 136.464844 490.726562 " transform="matrix(1,0,0,-1,-115,731)"/>
<path style="fill:none;stroke-width:0.4;stroke-linecap:butt;stroke-linejoin:round;stroke:rgb(0%,0%,0%);stroke-opacity:1;stroke-miterlimit:10;" d="M 140.179688 509.15625 C 141.949219 510.453125 142.417969 509.980469 141.121094 508.210938 C 139.828125 506.445312 136.761719 503.382812 134.996094 502.085938 C 133.226562 500.789062 132.753906 501.261719 134.050781 503.027344 C 135.347656 504.796875 138.410156 507.859375 140.179688 509.15625 Z M 140.179688 509.15625 " transform="matrix(1,0,0,-1,-115,731)"/>
<path style="fill-rule:evenodd;fill:rgb(100%,100%,100%);fill-opacity:1;stroke-width:0.4;stroke-linecap:butt;stroke-linejoin:round;stroke:rgb(0%,0%,0%);stroke-opacity:1;stroke-miterlimit:10;" d="M 131.066406 501.519531 C 130.378906 498.941406 134.242188 497.90625 134.929688 500.484375 C 135.621094 503.058594 131.757812 504.09375 131.066406 501.519531 Z M 131.066406 501.519531 " transform="matrix(1,0,0,-1,-115,731)"/>
<path style="fill:none;stroke-width:0.4;stroke-linecap:butt;stroke-linejoin:round;stroke:rgb(0%,0%,54.5%);stroke-opacity:1;stroke-miterlimit:10;" d="M 300 616 L 358 616 " transform="matrix(1,0,0,-1,-115,731)"/>
<path style="fill:none;stroke-width:0.4;stroke-linecap:butt;stroke-linejoin:round;stroke:rgb(0%,0%,54.5%);stroke-opacity:1;stroke-miterlimit:10;" d="M 300 610 L 358 610 " transform="matrix(1,0,0,-1,-115,731)"/>
<path style="fill:none;stroke-width:0.4;stroke-linecap:butt;stroke-linejoin:round;stroke:rgb(0%,0%,54.5%);stroke-opacity:1;stroke-miterlimit:10;" d="M 264 580 L 280 580 L 280 597 L 358 597 " transform="matrix(1,0,0,-1,-115,731)"/>
<path style="fill:none;stroke-width:0.4;stroke-linecap:butt;stroke-linejoin:round;stroke:rgb(0%,0%,54.5%);stroke-opacity:1;stroke-miterlimit:10;" d="M 300 576 L 364 576 L 364 600 L 358 600 " transform="matrix(1,0,0,-1,-115,731)"/>
<path style="fill:none;stroke-width:0.4;stroke-linecap:butt;stroke-linejoin:round;stroke:rgb(0%,0%,54.5%);stroke-opacity:1;stroke-miterlimit:10;" d="M 358 604 L 368 604 L 368 569 L 300 569 " transform="matrix(1,0,0,-1,-115,731)"/>
<path style="fill:none;stroke-width:0.8;stroke-linecap:butt;stroke-linejoin:round;stroke:rgb(0%,39.2%,0%);stroke-opacity:1;stroke-miterlimit:10;" d="M 294 514 L 318 514 " transform="matrix(1,0,0,-1,-115,731)"/>
<path style="fill:none;stroke-width:0.4;stroke-linecap:butt;stroke-linejoin:round;stroke:rgb(0%,0%,54.5%);stroke-opacity:1;stroke-miterlimit:10;" d="M 308 514 L 308 552 L 292 552 L 292 560 L 300 560 " transform="matrix(1,0,0,-1,-115,731)"/>
<path style="fill:none;stroke-width:0.4;stroke-linecap:butt;stroke-linejoin:round;stroke:rgb(0%,0%,54.5%);stroke-opacity:1;stroke-miterlimit:10;" d="M 300 564 L 352 564 L 352 548 L 384 548 " transform="matrix(1,0,0,-1,-115,731)"/>
<path style="fill:none;stroke-width:0.4;stroke-linecap:butt;stroke-linejoin:round;stroke:rgb(0%,0%,54.5%);stroke-opacity:1;stroke-miterlimit:10;" d="M 300 559 L 344 559 L 344 544 L 384 544 " transform="matrix(1,0,0,-1,-115,731)"/>
<path style="fill:none;stroke-width:0.4;stroke-linecap:butt;stroke-linejoin:round;stroke:rgb(0%,0%,0%);stroke-opacity:1;stroke-miterlimit:10;" d="M 319 488 L 305 488 L 305 514 " transform="matrix(1,0,0,-1,-115,731)"/>
<path style="fill:none;stroke-width:0.4;stroke-linecap:butt;stroke-linejoin:round;stroke:rgb(0%,0%,54.5%);stroke-opacity:1;stroke-miterlimit:10;" d="M 384 556 L 388 556 L 388 570 L 392 570 " transform="matrix(1,0,0,-1,-115,731)"/>
<path style="fill:none;stroke-width:0.4;stroke-linecap:butt;stroke-linejoin:round;stroke:rgb(0%,0%,54.5%);stroke-opacity:1;stroke-miterlimit:10;" d="M 392 578 L 388 578 L 388 600 L 384 600 " transform="matrix(1,0,0,-1,-115,731)"/>
<path style="fill:none;stroke-width:0.4;stroke-linecap:butt;stroke-linejoin:round;stroke:rgb(0%,0%,54.5%);stroke-opacity:1;stroke-miterlimit:10;" d="M 392 576 L 400 576 " transform="matrix(1,0,0,-1,-115,731)"/>
<path style="fill:none;stroke-width:0.4;stroke-linecap:butt;stroke-linejoin:round;stroke:rgb(0%,0%,54.5%);stroke-opacity:1;stroke-miterlimit:10;" d="M 334 648 L 334 656 " transform="matrix(1,0,0,-1,-115,731)"/>
<path style="fill:none;stroke-width:0.4;stroke-linecap:butt;stroke-linejoin:round;stroke:rgb(54.5%,0%,54.5%);stroke-opacity:1;stroke-miterlimit:10;" d="M 321 656 L 315 656 L 318 662 Z M 321 656 " transform="matrix(1,0,0,-1,-115,731)"/>
<g style="fill:rgb(100%,54.9%,0%);fill-opacity:1;">
  <use xlink:href="#glyph1-1" x="116" y="94"/>
</g>
<path style="fill:none;stroke-width:0.4;stroke-linecap:butt;stroke-linejoin:round;stroke:rgb(100%,54.9%,0%);stroke-opacity:1;stroke-miterlimit:10;" d="M 238 636 L 238 648 L 226 648 L 226 636 Z M 238 636 " transform="matrix(1,0,0,-1,-115,731)"/>
<path style="fill:none;stroke-width:0.4;stroke-linecap:butt;stroke-linejoin:round;stroke:rgb(100%,54.9%,0%);stroke-opacity:1;stroke-miterlimit:10;" d="M 226 636 L 238 648 " transform="matrix(1,0,0,-1,-115,731)"/>
<g style="fill:rgb(100%,54.9%,0%);fill-opacity:1;">
  <use xlink:href="#glyph0-1" x="112" y="88"/>
</g>
<path style="fill:none;stroke-width:0.8;stroke-linecap:butt;stroke-linejoin:round;stroke:rgb(100%,0%,0%);stroke-opacity:1;stroke-miterlimit:10;" d="M 220 632 L 244 632 " transform="matrix(1,0,0,-1,-115,731)"/>
<path style="fill:none;stroke-width:0.4;stroke-linecap:butt;stroke-linejoin:round;stroke:rgb(54.5%,0%,0%);stroke-opacity:1;stroke-miterlimit:10;" d="M 232 632 L 232 636 " transform="matrix(1,0,0,-1,-115,731)"/>
<path style="fill:none;stroke-width:0.8;stroke-linecap:butt;stroke-linejoin:round;stroke:rgb(0%,39.2%,0%);stroke-opacity:1;stroke-miterlimit:10;" d="M 152 514 L 176 514 " transform="matrix(1,0,0,-1,-115,731)"/>
<path style="fill:none;stroke-width:0.4;stroke-linecap:butt;stroke-linejoin:round;stroke:rgb(0%,0%,0%);stroke-opacity:1;stroke-miterlimit:10;" d="M 134 488 L 164 488 L 164 514 " transform="matrix(1,0,0,-1,-115,731)"/>
<path style="fill:none;stroke-width:0.8;stroke-linecap:butt;stroke-linejoin:round;stroke:rgb(0%,39.2%,0%);stroke-opacity:1;stroke-miterlimit:10;" d="M 128 524 L 152 524 " transform="matrix(1,0,0,-1,-115,731)"/>
<path style="fill:none;stroke-width:0.4;stroke-linecap:butt;stroke-linejoin:round;stroke:rgb(0%,0%,0%);stroke-opacity:1;stroke-miterlimit:10;" d="M 132 548 L 132 532 L 134 532 L 134 548 Z M 132 548 " transform="matrix(1,0,0,-1,-115,731)"/>
<path style="fill:none;stroke-width:0.4;stroke-linecap:butt;stroke-linejoin:round;stroke:rgb(0%,0%,0%);stroke-opacity:1;stroke-miterlimit:10;" d="M 122.363281 550.160156 C 120.355469 551.042969 120.527344 551.6875 122.707031 551.449219 C 124.886719 551.210938 129.074219 550.085938 131.078125 549.203125 C 133.085938 548.320312 132.914062 547.679688 130.734375 547.917969 C 128.554688 548.15625 124.371094 549.277344 122.363281 550.160156 Z M 122.363281 550.160156 " transform="matrix(1,0,0,-1,-115,731)"/>
<path style="fill-rule:evenodd;fill:rgb(100%,100%,100%);fill-opacity:1;stroke-width:0.4;stroke-linecap:butt;stroke-linejoin:round;stroke:rgb(0%,0%,0%);stroke-opacity:1;stroke-miterlimit:10;" d="M 136.464844 537.726562 C 136.703125 535.546875 136.0625 535.375 135.179688 537.382812 C 134.296875 539.390625 133.171875 543.574219 132.933594 545.753906 C 132.695312 547.933594 133.339844 548.105469 134.222656 546.097656 C 135.105469 544.09375 136.226562 539.90625 136.464844 537.726562 Z M 136.464844 537.726562 " transform="matrix(1,0,0,-1,-115,731)"/>
<path style="fill:none;stroke-width:0.4;stroke-linecap:butt;stroke-linejoin:round;stroke:rgb(0%,0%,0%);stroke-opacity:1;stroke-miterlimit:10;" d="M 140.179688 556.15625 C 141.949219 557.453125 142.417969 556.980469 141.121094 555.210938 C 139.828125 553.445312 136.761719 550.382812 134.996094 549.085938 C 133.226562 547.789062 132.753906 548.261719 134.050781 550.027344 C 135.347656 551.796875 138.410156 554.859375 140.179688 556.15625 Z M 140.179688 556.15625 " transform="matrix(1,0,0,-1,-115,731)"/>
<path style="fill-rule:evenodd;fill:rgb(100%,100%,100%);fill-opacity:1;stroke-width:0.4;stroke-linecap:butt;stroke-linejoin:round;stroke:rgb(0%,0%,0%);stroke-opacity:1;stroke-miterlimit:10;" d="M 131.066406 548.519531 C 130.378906 545.941406 134.242188 544.90625 134.929688 547.484375 C 135.621094 550.058594 131.757812 551.09375 131.066406 548.519531 Z M 131.066406 548.519531 " transform="matrix(1,0,0,-1,-115,731)"/>
<path style="fill:none;stroke-width:0.4;stroke-linecap:butt;stroke-linejoin:round;stroke:rgb(0%,0%,54.5%);stroke-opacity:1;stroke-miterlimit:10;" d="M 144 524 L 144 552 L 160 552 L 160 570 " transform="matrix(1,0,0,-1,-115,731)"/>
<path style="fill:none;stroke-width:0.4;stroke-linecap:butt;stroke-linejoin:round;stroke:rgb(0%,0%,54.5%);stroke-opacity:1;stroke-miterlimit:10;" d="M 156 514 L 156 520 L 116 520 L 116 560 L 144 560 L 144 570 " transform="matrix(1,0,0,-1,-115,731)"/>
<path style="fill:none;stroke-width:0.4;stroke-linecap:butt;stroke-linejoin:round;stroke:rgb(0%,0%,0%);stroke-opacity:1;stroke-miterlimit:10;" d="M 265 510 L 265 494 L 267 494 L 267 510 Z M 265 510 " transform="matrix(1,0,0,-1,-115,731)"/>
<path style="fill:none;stroke-width:0.4;stroke-linecap:butt;stroke-linejoin:round;stroke:rgb(0%,0%,0%);stroke-opacity:1;stroke-miterlimit:10;" d="M 255.363281 512.160156 C 253.355469 513.042969 253.527344 513.6875 255.707031 513.449219 C 257.886719 513.210938 262.074219 512.085938 264.078125 511.203125 C 266.085938 510.320312 265.914062 509.679688 263.734375 509.917969 C 261.554688 510.15625 257.371094 511.277344 255.363281 512.160156 Z M 255.363281 512.160156 " transform="matrix(1,0,0,-1,-115,731)"/>
<path style="fill-rule:evenodd;fill:rgb(100%,100%,100%);fill-opacity:1;stroke-width:0.4;stroke-linecap:butt;stroke-linejoin:round;stroke:rgb(0%,0%,0%);stroke-opacity:1;stroke-miterlimit:10;" d="M 269.464844 499.726562 C 269.703125 497.546875 269.0625 497.375 268.179688 499.382812 C 267.296875 501.390625 266.171875 505.574219 265.933594 507.753906 C 265.695312 509.933594 266.339844 510.105469 267.222656 508.097656 C 268.105469 506.09375 269.226562 501.90625 269.464844 499.726562 Z M 269.464844 499.726562 " transform="matrix(1,0,0,-1,-115,731)"/>
<path style="fill:none;stroke-width:0.4;stroke-linecap:butt;stroke-linejoin:round;stroke:rgb(0%,0%,0%);stroke-opacity:1;stroke-miterlimit:10;" d="M 273.179688 518.15625 C 274.949219 519.453125 275.417969 518.980469 274.121094 517.210938 C 272.828125 515.445312 269.761719 512.382812 267.996094 511.085938 C 266.226562 509.789062 265.753906 510.261719 267.050781 512.027344 C 268.347656 513.796875 271.410156 516.859375 273.179688 518.15625 Z M 273.179688 518.15625 " transform="matrix(1,0,0,-1,-115,731)"/>
<path style="fill-rule:evenodd;fill:rgb(100%,100%,100%);fill-opacity:1;stroke-width:0.4;stroke-linecap:butt;stroke-linejoin:round;stroke:rgb(0%,0%,0%);stroke-opacity:1;stroke-miterlimit:10;" d="M 264.066406 510.519531 C 263.378906 507.941406 267.242188 506.90625 267.929688 509.484375 C 268.621094 512.058594 264.757812 513.09375 264.066406 510.519531 Z M 264.066406 510.519531 " transform="matrix(1,0,0,-1,-115,731)"/>
<path style="fill:none;stroke-width:0.4;stroke-linecap:butt;stroke-linejoin:round;stroke:rgb(0%,0%,0%);stroke-opacity:1;stroke-miterlimit:10;" d="M 267 497 L 280 497 L 280 523 " transform="matrix(1,0,0,-1,-115,731)"/>
<path style="fill:none;stroke-width:0.4;stroke-linecap:butt;stroke-linejoin:round;stroke:rgb(0%,0%,54.5%);stroke-opacity:1;stroke-miterlimit:10;" d="M 171 514 L 171 492 L 300 491 L 300 514 " transform="matrix(1,0,0,-1,-115,731)"/>
<path style="fill:none;stroke-width:0.8;stroke-linecap:butt;stroke-linejoin:round;stroke:rgb(0%,39.2%,0%);stroke-opacity:1;stroke-miterlimit:10;" d="M 268 523 L 292 523 " transform="matrix(1,0,0,-1,-115,731)"/>
<path style="fill:none;stroke-width:0.4;stroke-linecap:butt;stroke-linejoin:round;stroke:rgb(0%,0%,54.5%);stroke-opacity:1;stroke-miterlimit:10;" d="M 148 524 L 148 532 L 276 532 L 276 523 " transform="matrix(1,0,0,-1,-115,731)"/>
<path style="fill:none;stroke-width:0.4;stroke-linecap:butt;stroke-linejoin:round;stroke:rgb(0%,0%,54.5%);stroke-opacity:1;stroke-miterlimit:10;" d="M 288 523 L 288 562 L 300 562 " transform="matrix(1,0,0,-1,-115,731)"/>
<path style="fill:none;stroke-width:0.4;stroke-linecap:butt;stroke-linejoin:round;stroke:rgb(0%,0%,0%);stroke-opacity:1;stroke-miterlimit:10;" d="M 134 534 L 140 534 L 140 524 " transform="matrix(1,0,0,-1,-115,731)"/>
<path style="fill:none;stroke-width:0.4;stroke-linecap:butt;stroke-linejoin:round;stroke:rgb(54.5%,0%,0%);stroke-opacity:1;stroke-miterlimit:10;" d="M 248 580 L 232 580 L 232 632 " transform="matrix(1,0,0,-1,-115,731)"/>
<g style="fill:rgb(100%,54.9%,0%);fill-opacity:1;">
  <use xlink:href="#glyph1-1" x="76" y="94"/>
</g>
<path style="fill:none;stroke-width:0.4;stroke-linecap:butt;stroke-linejoin:round;stroke:rgb(100%,54.9%,0%);stroke-opacity:1;stroke-miterlimit:10;" d="M 198 636 L 198 648 L 186 648 L 186 636 Z M 198 636 " transform="matrix(1,0,0,-1,-115,731)"/>
<path style="fill:none;stroke-width:0.4;stroke-linecap:butt;stroke-linejoin:round;stroke:rgb(100%,54.9%,0%);stroke-opacity:1;stroke-miterlimit:10;" d="M 186 636 L 198 648 " transform="matrix(1,0,0,-1,-115,731)"/>
<g style="fill:rgb(100%,54.9%,0%);fill-opacity:1;">
  <use xlink:href="#glyph0-1" x="72" y="88"/>
</g>
<path style="fill:none;stroke-width:0.8;stroke-linecap:butt;stroke-linejoin:round;stroke:rgb(100%,0%,0%);stroke-opacity:1;stroke-miterlimit:10;" d="M 180 632 L 204 632 " transform="matrix(1,0,0,-1,-115,731)"/>
<path style="fill:none;stroke-width:0.4;stroke-linecap:butt;stroke-linejoin:round;stroke:rgb(54.5%,0%,0%);stroke-opacity:1;stroke-miterlimit:10;" d="M 192 632 L 192 636 " transform="matrix(1,0,0,-1,-115,731)"/>
<path style="fill:none;stroke-width:0.4;stroke-linecap:butt;stroke-linejoin:round;stroke:rgb(54.5%,0%,0%);stroke-opacity:1;stroke-miterlimit:10;" d="M 152 612 L 192 612 L 192 636 " transform="matrix(1,0,0,-1,-115,731)"/>
<path style="fill:none;stroke-width:0.4;stroke-linecap:butt;stroke-linejoin:round;stroke:rgb(54.5%,0%,54.5%);stroke-opacity:1;stroke-miterlimit:10;" d="M 224 682 L 224 674 " transform="matrix(1,0,0,-1,-115,731)"/>
<path style="fill:none;stroke-width:0.4;stroke-linecap:butt;stroke-linejoin:round;stroke:rgb(54.5%,0%,54.5%);stroke-opacity:1;stroke-miterlimit:10;" d="M 227 682 L 221 682 L 224 688 Z M 227 682 " transform="matrix(1,0,0,-1,-115,731)"/>
<path style="fill:none;stroke-width:0.4;stroke-linecap:butt;stroke-linejoin:round;stroke:rgb(0%,0%,54.5%);stroke-opacity:1;stroke-miterlimit:10;" d="M 192 648 L 192 656 L 204 656 L 204 674 " transform="matrix(1,0,0,-1,-115,731)"/>
<path style="fill:none;stroke-width:0.4;stroke-linecap:butt;stroke-linejoin:round;stroke:rgb(0%,0%,54.5%);stroke-opacity:1;stroke-miterlimit:10;" d="M 220 674 L 220 656 L 232 656 L 232 648 " transform="matrix(1,0,0,-1,-115,731)"/>
<path style="fill:none;stroke-width:0.4;stroke-linecap:butt;stroke-linejoin:round;stroke:rgb(0%,0%,54.5%);stroke-opacity:1;stroke-miterlimit:10;" d="M 358 608 L 384 608 " transform="matrix(1,0,0,-1,-115,731)"/>
<path style="fill:none;stroke-width:0.4;stroke-linecap:butt;stroke-linejoin:round;stroke:rgb(0%,0%,54.5%);stroke-opacity:1;stroke-miterlimit:10;" d="M 358 612 L 384 612 " transform="matrix(1,0,0,-1,-115,731)"/>
<path style="fill:none;stroke-width:0.4;stroke-linecap:butt;stroke-linejoin:round;stroke:rgb(0%,0%,54.5%);stroke-opacity:1;stroke-miterlimit:10;" d="M 394.5 546 L 442 546 L 442 624 L 328 624 L 328 648 " transform="matrix(1,0,0,-1,-115,731)"/>
<g style="fill:rgb(0%,0%,54.5%);fill-opacity:1;">
  <use xlink:href="#glyph6-1" x="280" y="138.993"/>
  <use xlink:href="#glyph6-2" x="287.192997" y="138.993"/>
  <use xlink:href="#glyph6-3" x="297.713503" y="138.993"/>
  <use xlink:href="#glyph6-4" x="302.694803" y="138.993"/>
  <use xlink:href="#glyph6-5" x="306.590179" y="138.993"/>
  <use xlink:href="#glyph6-6" x="309.34982" y="138.993"/>
  <use xlink:href="#glyph6-7" x="318.196608" y="138.993"/>
</g>
<path style="fill:none;stroke-width:0.4;stroke-linecap:butt;stroke-linejoin:round;stroke:rgb(0%,0%,54.5%);stroke-opacity:1;stroke-miterlimit:10;" d="M 384 546 L 396 546 " transform="matrix(1,0,0,-1,-115,731)"/>
<g style="fill:rgb(0%,0%,54.5%);fill-opacity:1;">
  <use xlink:href="#glyph6-1" x="192" y="50.993"/>
  <use xlink:href="#glyph6-2" x="199.192997" y="50.993"/>
  <use xlink:href="#glyph6-3" x="209.713503" y="50.993"/>
  <use xlink:href="#glyph6-4" x="214.694803" y="50.993"/>
  <use xlink:href="#glyph6-5" x="218.590179" y="50.993"/>
  <use xlink:href="#glyph6-6" x="221.34982" y="50.993"/>
  <use xlink:href="#glyph6-8" x="230.196608" y="50.993"/>
</g>
<g style="fill:rgb(0%,0%,54.5%);fill-opacity:1;">
  <use xlink:href="#glyph6-1" x="73" y="27.993"/>
  <use xlink:href="#glyph6-2" x="80.192997" y="27.993"/>
  <use xlink:href="#glyph6-3" x="90.713503" y="27.993"/>
  <use xlink:href="#glyph6-4" x="95.694803" y="27.993"/>
  <use xlink:href="#glyph6-5" x="99.590179" y="27.993"/>
  <use xlink:href="#glyph6-6" x="102.34982" y="27.993"/>
  <use xlink:href="#glyph6-9" x="111.196608" y="27.993"/>
</g>
</g>
</svg>
